$MeshFormat
4.1 0 8
$EndMeshFormat
$PhysicalNames
5
1 1 "Gamma1"
1 2 "Gamma2"
1 3 "Gamma3"
1 4 "Gamma4"
2 5 "Omega"
$EndPhysicalNames
$Entities
6 6 1 0
1 0 0 0 0 
2 1 0 0 0 
3 1 -0.5 0 0 
4 4 -0.5 0 0 
5 4 1 0 0 
6 0 1 0 0 
1 0 0 0 1 0 0 1 1 2 1 -2 
2 1 -0.5 0 1 0 0 1 1 2 2 -3 
3 1 -0.5 0 4 -0.5 0 1 1 2 3 -4 
4 4 -0.5 0 4 1 0 1 4 2 4 -5 
5 0 1 0 4 1 0 1 2 2 5 -6 
6 0 0 0 0 1 0 1 3 2 6 -1 
1 0 -0.5 0 4 1 0 1 5 6 1 2 3 4 5 6 
$EndEntities
$Nodes
13 924 1 924
0 1 0 1
1
0 0 0
0 2 0 1
2
1 0 0
0 3 0 1
3
1 -0.5 0
0 4 0 1
4
4 -0.5 0
0 5 0 1
5
4 1 0
0 6 0 1
6
0 1 0
1 1 0 8
7
8
9
10
11
12
13
14
0.1893944863584841 0 0
0.378788972716827 0 0
0.55991386959008 0 0
0.6976459645954478 0 0
0.7988521163440065 0 0
0.8732515715014842 0 0
0.9279088047508642 0 0
0.9680724805149604 0 0
1 2 0 14
15
16
17
18
19
20
21
22
23
24
25
26
27
28
1 -0.03333333333326625 0
1 -0.06666666666654246 0
1 -0.09999999999977852 0
1 -0.1333333333330146 0
1 -0.1666666666662507 0
1 -0.1999999999994868 0
1 -0.2333333333327229 0
1 -0.2666666666660514 0
1 -0.2999999999994725 0
1 -0.3333333333328938 0
1 -0.366666666666315 0
1 -0.3999999999997362 0
1 -0.4333333333331575 0
1 -0.4666666666665787 0
1 3 0 76
29
30
31
32
33
34
35
36
37
38
39
40
41
42
43
44
45
46
47
48
49
50
51
52
53
54
55
56
57
58
59
60
61
62
63
64
65
66
67
68
69
70
71
72
73
74
75
76
77
78
79
80
81
82
83
84
85
86
87
88
89
90
91
92
93
94
95
96
97
98
99
100
101
102
103
104
1.035626938913819 -0.5 0
1.081787532140408 -0.5 0
1.123248236026096 -0.5 0
1.158163827141544 -0.5 0
1.193079585764743 -0.5 0
1.234757964090457 -0.5 0
1.2776187740832 -0.5 0
1.312582450256209 -0.5 0
1.347498041371657 -0.5 0
1.387838689754445 -0.5 0
1.431868808898867 -0.5 0
1.467001569562384 -0.5 0
1.501917160677831 -0.5 0
1.541079756697039 -0.5 0
1.585992482394437 -0.5 0
1.621420084620691 -0.5 0
1.656335675736139 -0.5 0
1.694475945900271 -0.5 0
1.739986331023086 -0.5 0
1.775839029125896 -0.5 0
1.810754620241344 -0.5 0
1.848022520191275 -0.5 0
1.893845476932764 -0.5 0
1.930257734946097 -0.5 0
1.965173326061544 -0.5 0
2.001713902511399 -0.5 0
2.047565290073674 -0.5 0
2.084676523473795 -0.5 0
2.119592114589501 -0.5 0
2.155545705594534 -0.5 0
2.201141297428253 -0.5 0
2.239095467971663 -0.5 0
2.274011059087369 -0.5 0
2.309513018750644 -0.5 0
2.354567879218066 -0.5 0
2.393514008382577 -0.5 0
2.428429599498283 -0.5 0
2.463611076473092 -0.5 0
2.507840387166477 -0.5 0
2.547932952887513 -0.5 0
2.582848544003218 -0.5 0
2.617836128114419 -0.5 0
2.660953296392022 -0.5 0
2.702351493298427 -0.5 0
2.737267084414133 -0.5 0
2.772183244468056 -0.5 0
2.813925213587634 -0.5 0
2.856727042466942 -0.5 0
2.891686028911993 -0.5 0
2.926601620027699 -0.5 0
2.96699863364098 -0.5 0
3.010982321329049 -0.5 0
3.046104817440175 -0.5 0
3.08102040855588 -0.5 0
3.120232549278899 -0.5 0
3.165111884065366 -0.5 0
3.200523523261319 -0.5 0
3.235439114377025 -0.5 0
3.273622118319084 -0.5 0
3.319111749101042 -0.5 0
3.354942467767466 -0.5 0
3.389858058883172 -0.5 0
3.427161902552734 -0.5 0
3.47297682510954 -0.5 0
3.509360982826713 -0.5 0
3.544276573942419 -0.5 0
3.58084678555075 -0.5 0
3.626703158646812 -0.5 0
3.663780102133836 -0.5 0
3.698695693249542 -0.5 0
3.73467260878723 -0.5 0
3.780285594823263 -0.5 0
3.818198725249443 -0.5 0
3.853114316365148 -0.5 0
3.888633720581663 -0.5 0
3.934918782395727 -0.5 0
1 4 0 7
105
106
107
108
109
110
111
4 -0.317536059511108 0
4 -0.129316622438885 0
4 0.05890281463333746 0
4 0.2471222517055762 0
4 0.435341688779154 0
4 0.6235611258527691 0
4 0.8117805629263848 0
1 5 0 19
112
113
114
115
116
117
118
119
120
121
122
123
124
125
126
127
128
129
130
3.799999999999167 1 0
3.599999999998334 1 0
3.399999999998611 1 0
3.199999999999998 1 0
3.000000000001386 1 0
2.800000000002774 1 0
2.600000000004162 1 0
2.40000000000555 1 0
2.200000000006938 1 0
2.000000000008239 1 0
1.800000000007492 1 0
1.60000000000666 1 0
1.400000000005827 1 0
1.200000000004995 1 0
1.000000000004163 1 0
0.80000000000333 1 0
0.6000000000024972 1 0
0.4000000000016652 1 0
0.200000000000832 1 0
1 6 0 4
131
132
133
134
0 0.7999999999999996 0
0 0.6000000000013874 0
0 0.400000000001665 0
0 0.2000000000008325 0
2 1 0 790
135
136
137
138
139
140
141
142
143
144
145
146
147
148
149
150
151
152
153
154
155
156
157
158
159
160
161
162
163
164
165
166
167
168
169
170
171
172
173
174
175
176
177
178
179
180
181
182
183
184
185
186
187
188
189
190
191
192
193
194
195
196
197
198
199
200
201
202
203
204
205
206
207
208
209
210
211
212
213
214
215
216
217
218
219
220
221
222
223
224
225
226
227
228
229
230
231
232
233
234
235
236
237
238
239
240
241
242
243
244
245
246
247
248
249
250
251
252
253
254
255
256
257
258
259
260
261
262
263
264
265
266
267
268
269
270
271
272
273
274
275
276
277
278
279
280
281
282
283
284
285
286
287
288
289
290
291
292
293
294
295
296
297
298
299
300
301
302
303
304
305
306
307
308
309
310
311
312
313
314
315
316
317
318
319
320
321
322
323
324
325
326
327
328
329
330
331
332
333
334
335
336
337
338
339
340
341
342
343
344
345
346
347
348
349
350
351
352
353
354
355
356
357
358
359
360
361
362
363
364
365
366
367
368
369
370
371
372
373
374
375
376
377
378
379
380
381
382
383
384
385
386
387
388
389
390
391
392
393
394
395
396
397
398
399
400
401
402
403
404
405
406
407
408
409
410
411
412
413
414
415
416
417
418
419
420
421
422
423
424
425
426
427
428
429
430
431
432
433
434
435
436
437
438
439
440
441
442
443
444
445
446
447
448
449
450
451
452
453
454
455
456
457
458
459
460
461
462
463
464
465
466
467
468
469
470
471
472
473
474
475
476
477
478
479
480
481
482
483
484
485
486
487
488
489
490
491
492
493
494
495
496
497
498
499
500
501
502
503
504
505
506
507
508
509
510
511
512
513
514
515
516
517
518
519
520
521
522
523
524
525
526
527
528
529
530
531
532
533
534
535
536
537
538
539
540
541
542
543
544
545
546
547
548
549
550
551
552
553
554
555
556
557
558
559
560
561
562
563
564
565
566
567
568
569
570
571
572
573
574
575
576
577
578
579
580
581
582
583
584
585
586
587
588
589
590
591
592
593
594
595
596
597
598
599
600
601
602
603
604
605
606
607
608
609
610
611
612
613
614
615
616
617
618
619
620
621
622
623
624
625
626
627
628
629
630
631
632
633
634
635
636
637
638
639
640
641
642
643
644
645
646
647
648
649
650
651
652
653
654
655
656
657
658
659
660
661
662
663
664
665
666
667
668
669
670
671
672
673
674
675
676
677
678
679
680
681
682
683
684
685
686
687
688
689
690
691
692
693
694
695
696
697
698
699
700
701
702
703
704
705
706
707
708
709
710
711
712
713
714
715
716
717
718
719
720
721
722
723
724
725
726
727
728
729
730
731
732
733
734
735
736
737
738
739
740
741
742
743
744
745
746
747
748
749
750
751
752
753
754
755
756
757
758
759
760
761
762
763
764
765
766
767
768
769
770
771
772
773
774
775
776
777
778
779
780
781
782
783
784
785
786
787
788
789
790
791
792
793
794
795
796
797
798
799
800
801
802
803
804
805
806
807
808
809
810
811
812
813
814
815
816
817
818
819
820
821
822
823
824
825
826
827
828
829
830
831
832
833
834
835
836
837
838
839
840
841
842
843
844
845
846
847
848
849
850
851
852
853
854
855
856
857
858
859
860
861
862
863
864
865
866
867
868
869
870
871
872
873
874
875
876
877
878
879
880
881
882
883
884
885
886
887
888
889
890
891
892
893
894
895
896
897
898
899
900
901
902
903
904
905
906
907
908
909
910
911
912
913
914
915
916
917
918
919
920
921
922
923
924
1.676851205030522 -0.4707618588867244 0
1.87093399856202 -0.4680955557244812 0
2.065239390070318 -0.4694172076572325 0
2.256299111362082 -0.4687005301157537 0
2.453057322246646 -0.4690511913236467 0
2.640446691499427 -0.4677641694654107 0
2.836289077702997 -0.4687018196863283 0
3.028543569384611 -0.4696726186145466 0
3.217981318819171 -0.4697622111056484 0
1.487118231773108 -0.4664986257751238 0
1.02765272796773 -0.0499974405180417 0
3.37240026332532 -0.4697622111056484 0
3.526953493207872 -0.4692145520010596 0
1.332536401088917 -0.4674307418533403 0
1.031802822751697 -0.184329885106561 0
3.645241630390324 -0.4688263180756027 0
1.2139187749276 -0.4668337658106486 0
0.9560174639279571 0.03761439598829276 0
1.029042629505178 -0.2884181491030131 0
3.759581772955348 -0.466874523169879 0
2.272592127377207 0.8158273536377996 0
3.103919455254518 0.8468393818997672 0
1.707879075549403 0.8539538116049119 0
3.836997186009442 0.1530125331694568 0
0.7566098965481105 0.07054479920902942 0
1.028867513459558 -0.3833333333330255 0
1.1061791517338 0.82913840321552 0
1.983746242735849 -0.4692462323277115 0
1.757912680074491 -0.4693564318773122 0
2.527050738584382 -0.4622386509688832 0
2.947549637104303 -0.4682525332895311 0
1.563536119545739 -0.4677014967230562 0
2.757335715480226 -0.4668830847909858 0
2.179021781330578 -0.466169765092996 0
0.5189391574284534 0.8454294504206714 0
3.45050334918023 -0.4637909453499838 0
3.29808591846523 -0.4659117943105422 0
2.332328497388047 -0.467488656840523 0
3.14005959591967 -0.4662881256100435 0
1.410238198207689 -0.4679809536667997 0
2.70344084479521 0.8407320981360269 0
1.030249963713833 -0.1154893919280121 0
3.496025788590237 0.8289276007073831 0
1.13994625972262 -0.467893797266457 0
3.832219938393083 -0.4739930580981674 0
3.928591169064405 -0.4488634159062261 0
0.4876080863586119 0.1309688688419335 0
0.1730119542317454 0.5126200680582906 0
3.836997186008259 0.5294514073159615 0
3.839084751803064 -0.2072931844159265 0
1.059176923411861 -0.4666963111309788 0
3.850188650932308 -0.05773885558808584 0
3.709964385422894 0.03927268936899722 0
3.716388153444591 -0.1424430204220953 0
3.60952109467924 -0.05745943520391159 0
3.583237320961912 0.07393364450985195 0
3.488189434524969 -0.02355397944992194 0
3.463069457910311 0.1111258191739717 0
3.367674167991018 0.02941842758918493 0
3.347591913763445 0.1490951000962565 0
3.260134330642891 0.06867792300488725 0
3.277827001139615 -0.04092849182931572 0
3.178902897361044 -0.002255426798880117 0
3.152583468461573 0.1018230715753877 0
3.080858086616479 0.03286817532434633 0
3.047178455198632 0.1323297975048747 0
2.973435809493167 0.04226226925571593 0
2.939017752937104 0.1594992701982936 0
2.863030776412688 0.07942681983299929 0
2.885706554993587 -0.0216850830095091 0
2.78905897984166 0.007055188853886542 0
2.759636642705212 0.1052761277455343 0
2.683484389081906 0.01525681308578559 0
2.657827540354226 0.127133672048162 0
2.587657718421223 0.05300767664571779 0
2.556991243908234 0.1529825958247411 0
2.487432549178591 0.07537035109609355 0
2.516042613985467 -0.01811917032583053 0
2.420176096377383 0.002205125469827693 0
2.388831526025302 0.09426072254153139 0
2.323733808486891 0.02025128561710784 0
2.29183532697412 0.1116974681785283 0
2.228223659503809 0.03749249579948353 0
2.193418773566562 0.1315130516384498 0
2.129089384174284 0.05521783268877709 0
2.093021595801896 0.148825254816811 0
2.029402124073738 0.07179021069397169 0
2.064264272564696 -0.01812678929343526 0
1.961906869642401 -0.01188799579655733 0
1.932119687784162 0.08363285035957754 0
1.869223963726578 0.01059073454598658 0
1.837158844411214 0.09716913550579956 0
1.780928404855013 0.02595496801851828 0
1.743371384575493 0.1081863095137721 0
1.689272812553631 0.04400813008367719 0
1.650173307922958 0.1206256579026199 0
1.596758862823018 0.05599167003346692 0
1.56112067797948 0.1311978281170093 0
1.513124839231417 0.06212308604084649 0
1.469267751018237 0.1345624243010026 0
1.552970982228332 -0.01688855602135684 0
1.463011335777992 -0.002139404660919757 0
1.492298517185441 -0.06870101022426962 0
1.425068154503391 -0.06068871913390901 0
1.450299758922666 -0.119298726996918 0
1.512408522190803 -0.1306502909838937 0
1.388514688164329 -0.11001157812069 0
1.363599348576602 -0.0560331963994706 0
1.329603126732899 -0.1025636909053638 0
1.305412938618418 -0.05051779057063996 0
1.353462742467531 -0.1545097243609455 0
1.298674828605794 -0.1469265726359498 0
1.319648519070273 -0.1947206008052212 0
1.269538129471664 -0.1884007780594712 0
1.812416831665074 -0.05132161907920105 0
2.266798982838827 -0.04966010645692565 0
1.248581467901603 -0.1420927832125533 0
1.288360954658075 -0.2332564266206495 0
1.335606670540468 -0.2408388223180536 0
2.010980147093284 -0.08458547119906337 0
2.448954390473951 -0.08446139446068436 0
2.53678253442342 -0.1036229028549197 0
1.242447693089409 -0.2277878251024985 0
2.817633029100831 -0.08459961707225316 0
2.901368400291829 -0.1117685787130846 0
1.527913462873383 0.213958050133499 0
1.43659420747943 0.2256151527557453 0
1.801819579459088 0.1884152104021948 0
3.192775822872351 -0.1083634352945056 0
3.286306048196582 -0.139297194980799 0
1.306065455322839 -0.2766470279351085 0
1.350713546244809 -0.2840950920648627 0
2.47786761526431 -0.1635534467146972 0
2.554513845483172 -0.1824785722870992 0
2.262184648255364 0.2103320594757583 0
2.842639761298752 -0.1675906371341272 0
2.915966121341252 -0.1912814579141378 0
1.49264289783184 0.3047097864027897 0
1.391528162506505 0.3149347375588547 0
1.333030235538258 0.2290188667535778 0
1.29122990819539 0.3205819613674947 0
1.231458230378847 0.2442748880782602 0
1.194030355090713 0.3274532239308783 0
2.624268327162508 0.2335064414217318 0
1.142478465820321 0.2508164401916862 0
1.101188320379726 0.333987204929073 0
3.014730783934749 0.2423998513093912 0
3.22343655040255 -0.1979551339075937 0
1.346729447268793 0.4100969372348015 0
3.296631684968978 -0.2240754837398935 0
2.507657507968136 -0.2443929849795912 0
2.433284758830353 -0.2225164797693244 0
2.577793960643358 -0.2466606500693745 0
1.049628097488937 0.2518837715085852 0
1.008303149993397 0.33887469748721 0
1.174557908115632 0.1757729488870561 0
2.858928823121778 -0.2396155037779139 0
2.930025864612539 -0.2639661478184118 0
1.322598297062701 -0.3190027279527392 0
1.279016229499918 -0.3117284417576787 0
1.36541407643881 -0.3257197922838641 0
1.394044853661519 -0.291498551148817 0
1.409507571262536 -0.3321258959889062 0
1.437960359718272 -0.2988998604607704 0
3.441043415288836 0.2366245620270783 0
1.453699646494732 -0.3398781732388206 0
1.482323450842814 -0.3067168816009829 0
1.153061283925182 0.4154620792314163 0
3.60479300295489 -0.1929041377959032 0
2.45550399509341 -0.2870335821464758 0
2.39348924419114 -0.2733847174955575 0
1.339281309917928 -0.002677170332922548 0
1.497631432795055 -0.3485437077221101 0
1.527532724974719 -0.3140855060906189 0
3.239418955555346 -0.2746487655336279 0
3.171430212965527 -0.2520067835711524 0
1.294794716792503 -0.3520425213202824 0
1.253381805729791 -0.3456785420238289 0
3.301022938208465 -0.3061535922090253 0
2.791818607348363 -0.2217808185648094 0
2.807821475151072 -0.2865356668896268 0
3.363746163299369 -0.2552954128170176 0
1.28066347089311 0.001703375741739446 0
0.956483429813086 0.2622927270772639 0
0.9084589478266478 0.3495944967658543 0
0.9683555859231603 0.4370260639762599 0
0.8576373652671624 0.4481200203135146 0
0.7954117197916277 0.3502098763115651 0
0.7354089062862479 0.4563974483116127 0
1.543069884825253 -0.3559294020206497 0
1.573337796029693 -0.3217465771854474 0
1.589781839929523 -0.364431973187142 0
1.619726177976657 -0.3298105423837901 0
1.603495624691452 -0.2840315085934826 0
1.655230146711289 -0.2927175046619178 0
1.634022612735233 -0.240714596249522 0
1.690515450749247 -0.2507934173865345 0
1.709407960598058 -0.3038541786200613 0
1.746479822396882 -0.2616962689045941 0
1.763839262907362 -0.3151914905344651 0
1.802035842486834 -0.2731994774198909 0
1.671454698546504 -0.1954202623039599 0
1.819258354134456 -0.3264503960429047 0
1.85735577734232 -0.2848029551033987 0
1.874693885712297 -0.3344296468318761 0
1.912697100849487 -0.2961584827967413 0
2.411836962170334 -0.3295977764964768 0
2.353642554547021 -0.3180180970651239 0
2.334001656398989 -0.2625659231810412 0
2.295314882669326 -0.307882298271366 0
2.275082396760574 -0.2522004870476457 0
2.237502057157078 -0.29816636206672 0
2.215699038201266 -0.2424731529304552 0
2.177515046734186 -0.2885284158072658 0
2.1551303641607 -0.2310999175811338 0
2.117168110923239 -0.2790977856440788 0
2.138974094734133 -0.3332518038128518 0
2.080870600050896 -0.325783498670098 0
2.059083507921002 -0.2736465237205147 0
3.316073502911407 0.2780022106347416 0
3.416432273137064 0.3706805799193886 0
3.28091527930917 0.4131881746319546 0
2.903072241498452 0.2754741578996478 0
2.992679246085616 0.3633312902345929 0
2.859694098505159 0.4030467553664994 0
3.183534839017419 -0.3168848178111706 0
3.124473541460096 -0.2982657993606754 0
3.104197943012462 -0.2237446960231281 0
1.923453767262431 -0.354823046139475 0
1.382873549865098 -0.370379592728102 0
2.51674175360974 0.2609954361422738 0
2.594207244387362 0.3499567409553984 0
2.474398005786072 0.3790216395583263 0
2.466258677014307 -0.3455038554577448 0
1.895261664417141 -0.2401755961348996 0
2.747299849530882 -0.272788554867643 0
3.370775922967212 -0.3249179600999328 0
0.8151865824215518 0.5627529873618913 0
2.726857790677057 -0.2103365837984421 0
1.422623748628171 -0.2630654487123955 0
2.763496204250098 -0.3329943425317147 0
2.705377567024679 -0.3192322988321699 0
3.428629442341101 -0.2842865268541792 0
1.725912676822581 -0.3542040044884445 0
1.509787114183398 -0.270658641700719 0
2.828027505412496 -0.347760303582386 0
1.594721461110201 0.2927090314308179 0
1.554947451432185 0.3952649832698519 0
1.67169789475936 0.3792389161038315 0
1.26923071764602 -0.3822868053408232 0
1.228278661906963 -0.3765848816915023 0
1.212391598294233 -0.3405076766766884 0
1.18787327190212 -0.3705808962149216 0
1.17215099418715 -0.3353817582624868 0
1.148166870474974 -0.3661701888947462 0
1.133275245728862 -0.3305360707179861 0
1.157099921246664 -0.2996798101711562 0
1.118634955940432 -0.2949772500736996 0
1.141434465661078 -0.2642765663950642 0
1.103784863773786 -0.2594419503799676 0
1.126314496560465 -0.2290012726971765 0
1.095617671633979 -0.3250203448481595 0
1.636567248049634 -0.3746838976675199 0
2.258609837057631 -0.3531513682231881 0
2.568985330953155 0.481015373700359 0
2.976434325103364 -0.1423114964119829 0
1.313250004934405 0.05363856100746403 0
1.24945511718559 -0.04555343422252726 0
1.223839786272686 0.003170953695287295 0
1.194460364015344 -0.04069114950884196 0
1.16975729712866 0.005172651613122798 0
1.141765365079007 -0.0362731203726929 0
1.119351756979474 0.007610297109217136 0
1.164844779124982 -0.07988922213062064 0
1.117584287083308 -0.07450737991102618 0
1.138569625757054 -0.1140811168421724 0
0.9948675649427463 0.1949149893841335 0
1.309737257705701 -0.3909773473662153 0
2.314036498289104 -0.204472744436221 0
1.468846080034695 -0.3831659277865365 0
2.43222757293162 0.5088911086841401 0
3.136812662974044 -0.3561082935288684 0
3.082757048413543 -0.34009947747747 0
1.626936409816907 0.4976981386994582 0
1.757096367714823 0.4848245983715682 0
2.971958594557991 0.4995143111930866 0
2.368536049092766 -0.3658406347929432 0
3.544183776764122 0.3285600632970188 0
3.422833714904206 -0.2115813660794768 0
1.784583966553658 -0.217531791143621 0
0.9154597343459023 0.1945889027075553 0
2.721103335240633 -0.3731968266579999 0
2.669422760402832 -0.3611489867788044 0
3.436935795101647 -0.3562880869845444 0
3.490436673933745 -0.3127267705224789 0
3.52876679598116 0.5025430398367883 0
2.102839650629481 -0.3750279134144514 0
2.051629846229974 -0.3701003049482114 0
1.838442106182296 -0.3787159282201454 0
3.093953604725354 -0.3971376025140477 0
3.043753553667552 -0.3777280126630777 0
2.612577102249902 -0.1301630483891511 0
3.188168326045599 -0.3738159015775696 0
3.322152496603025 -0.3658408271483141 0
2.155658584320278 -0.3843745650623154 0
1.088363138003215 -0.2235811219232499 0
1.116098809130597 -0.1853521265928013 0
1.152233246471282 -0.1989453087107053 0
1.284212261252096 -0.4221178152997955 0
3.029848221948236 -0.3253628143721303 0
2.993035129088265 -0.3641511025760189 0
0.6702663687017214 0.3488941739592711 0
0.5997225579671699 0.466575617267052 0
2.824231108345894 0.5414831519113523 0
1.151281711884045 0.05317113006069425 0
1.098440468551432 0.05537693730655328 0
2.094098138147167 -0.106484451938119 0
2.193915256240627 -0.1810977139435463 0
1.61183345107682 -0.1872344055139357 0
1.646801252225584 -0.1384662267067725 0
1.162479745762322 -0.4034734177268459 0
1.123643929904774 -0.3969744305278223 0
1.606884631213737 -0.4064230944364664 0
1.713447598422397 -0.1472009307040391 0
1.952804236625797 -0.2538301119024497 0
3.498328923789349 -0.3786625974445144 0
3.550365632950648 -0.3387829099806725 0
1.067749114791311 0.007057481620562342 0
1.046339238863749 0.05254574035146244 0
1.068808896538635 0.09482181680228521 0
1.096844023529226 -0.1131998121496082 0
2.11737738549839 -0.4261851634476686 0
2.335731605721639 0.4083947069695134 0
2.292789263416269 0.537527678249454 0
2.195073229881239 0.4344803780747158 0
2.152806167624173 0.5647893809326976 0
2.053873060625423 0.4533339246948829 0
2.000152097748026 0.5896437017217264 0
1.472137064916418 -0.1765310429482321 0
1.178846894890161 -0.2657746815065506 0
1.935812360586656 -0.1940652052161401 0
2.53008579637739 0.6180377249258439 0
1.871649573904142 -0.1805506108284513 0
1.497802908939394 0.5133552524829886 0
1.177452497756026 -0.1183129155424567 0
1.374449026337232 0.04958645031605774 0
1.991533701221337 -0.2077533213752347 0
1.573500225982109 0.6184153601804283 0
1.427850253064705 0.6407339642663326 0
2.930879209253572 0.6424977836001798 0
3.086982518938342 0.5955814866862903 0
1.015524220126595 0.09328130861317104 0
3.548567471864134 -0.3988998313607997 0
3.607536202624049 -0.3753186992191566 0
2.650248741347621 -0.3069894860214495 0
2.614130768007163 -0.3557189529209837 0
1.078798192823667 -0.06961537207715884 0
1.684204545659238 -0.08229062854800465 0
2.688512907033187 -0.4074925871358624 0
1.349781534726341 0.1086127626072835 0
1.278818430934355 0.110740276344673 0
2.110915498090976 0.3367694043533513 0
1.974490337448343 0.349475500567498 0
1.798675071787097 0.353233790959545 0
0.5264328748474107 0.3550681271913216 0
0.4519049063556835 0.4764541843582163 0
0.3654047278629544 0.3391337763056181 0
2.113809773926973 0.7062908198087744 0
1.941182323190386 0.7240137608003272 0
0.7619179880062917 0.2437619607557432 0
3.004025196668461 -0.4085237038090282 0
2.95799275012675 -0.4001340863350389 0
2.942692150827795 -0.3543130213153262 0
2.909616549267217 -0.3945225982239367 0
2.893140802945866 -0.3436104509669535 0
1.650179338352281 -0.4170196562850366 0
2.071061284924101 -0.4108807263801182 0
2.025226986906694 -0.4064389206190164 0
2.001318069317566 -0.3656410621708728 0
1.983665858367898 -0.4050726328097514 0
1.537876159800674 -0.1898829257040144 0
1.067273883945986 -0.2533448964491934 0
3.144986209194601 -0.4087223176253014 0
1.617210012800638 -0.07485797161859387 0
3.606742334102267 -0.2933938103990719 0
3.670274246398956 -0.3272922757900952 0
0.8360518439227452 0.0558831853443157 0
0.8026884554479035 0.1395705442427983 0
1.621199796988681 -0.4420493805598676 0
1.074053972550874 -0.1885867046446005 0
1.098435110665413 0.1764397494384827 0
2.203636439131899 -0.3438704484700852 0
2.206075834002505 -0.3983353668512922 0
2.2601075617121 -0.4080245346397177 0
1.912084307916098 -0.1297068688176372 0
3.19638785732135 0.309278567145077 0
2.167705988407439 -0.04541133624086734 0
3.376232880848553 -0.3932718691421162 0
3.328998724143112 -0.4198319003682877 0
3.279364297336778 -0.3996914392632011 0
2.783782101318901 0.3029221395644058 0
0.5346561355655173 0.5908476236739482 0
0.3427521996679916 0.6104608992536529 0
2.373520535896364 -0.467693418318809 0
2.353242743465463 -0.434467735644795 0
2.396083843823275 -0.4309570209918335 0
2.419026100894606 -0.3856745455863742 0
2.476013611010304 -0.3964559467535942 0
2.517147067836918 -0.3636002986704833 0
2.313029710123638 -0.4322586682701264 0
3.102607384650943 -0.4654618723596921 0
2.140689881524559 -0.4652955722758126 0
3.380094109990536 -0.08801463643478973 0
3.04718230117107 -0.4293324445607662 0
1.091962752809479 -0.1540425498931865 0
1.058848968194799 -0.1606888923732366 0
1.052413320034373 -0.2189862789960536 0
1.50553543450668 0.7427049886784118 0
1.360970722752188 0.7602531333501183 0
1.281474906197499 0.6442566429546175 0
1.833115939459869 -0.4623146342330219 0
2.775857093132599 -0.3881010772931239 0
2.828621891051045 -0.4043966236242947 0
3.428335949022267 -0.4203057614325915 0
1.78041357670754 -0.3654486898061344 0
1.743880733714659 -0.4041829113461583 0
1.797207598308653 -0.4089655342089588 0
1.91135478822873 -0.4677533799421192 0
1.893529536952554 -0.4341537882285947 0
2.509390133395101 -0.3099279336459091 0
1.097241101730975 -0.03317671809986635 0
3.237402627540848 -0.3365875033811581 0
3.685164332002755 0.1725603851198085 0
3.781857009687958 0.2829482257714777 0
3.191797631203293 -0.426884382082541 0
3.680527063959626 -0.4016313023643553 0
3.738636539319595 -0.3558233860604566 0
2.024582238518416 -0.4695426405614104 0
2.524230036775363 -0.4145469599521475 0
1.37118268644932 -0.4674288446051998 0
1.392864753068602 -0.4362699718267495 0
1.42807184171418 -0.4365548482342375 0
1.354391753475401 -0.4309000261058045 0
1.410570910243444 -0.4044264561422678 0
2.318023018552108 -0.356571171145582 0
0.6149838418263456 0.1348570268831746 0
2.356049938614345 -0.06560808353504052 0
2.385420725134982 -0.1549476134434737 0
1.252789203663927 -0.4675673117756994 0
1.230615629687821 -0.4343105817788639 0
1.717901510097645 -0.4688299041107592 0
1.695459239082601 -0.4339817575698773 0
1.687592609992854 -0.3880457539207126 0
1.412570587983996 -0.1637989866970874 0
1.524900310487146 -0.4666379829754509 0
1.546599934415772 -0.4346435381249779 0
1.508772299895856 -0.430667554366494 0
1.468329435730694 -0.4356960787821975 0
2.734231457559597 -0.4253552671942828 0
2.874817103846543 -0.4683234950788477 0
1.931081935098994 -0.435039153068115 0
1.84491806235284 0.5972405001607222 0
2.502399250046128 0.8046778910062273 0
3.464619889407475 -0.1132622568022368 0
2.788603957492666 -0.4347718771461614 0
1.275585239050723 -0.09647300680750248 0
2.910014362300972 0.816664769676186 0
1.100851597072021 -0.4597398106008194 0
1.076231704510468 -0.4319643183212425 0
0.899938132881863 0.04690596125887384 0
0.9329941948391325 0.07946789629273102 0
2.56504547431814 -0.3830221008279178 0
2.571603803488696 -0.4325024283668163 0
2.681141314443138 -0.4696327283506022 0
2.989507331446504 -0.212253749816435 0
3.046045341194304 -0.1759652261175192 0
3.041710145639014 -0.09913421487476459 0
2.484603998544371 -0.440555732545895 0
0.9013311201768107 0.8141777905169996 0
1.000000000004162 0.6765125566853081 0
0.7099512296465105 0.8393174140298654 0
2.988098422020465 -0.4699667084654382 0
1.083383344547161 -0.2887586006417966 0
1.057431360439829 -0.314447183159159 0
1.073719321077586 -0.3525355126839743 0
1.224339150489134 -0.1842383330858643 0
1.195718872782213 -0.221259098036603 0
0.3145127088452472 0.1669393822071706 0
0.1868536933449143 0.3192853325639419 0
3.299097275457124 0.8404490432807414 0
3.40005647331979 0.6635556343503745 0
3.561419003933275 0.6758314565094664 0
1.21670590086964 -0.09578357906651883 0
2.027722459245805 -0.3201193802865717 0
1.88862258772169 0.4545618686445631 0
1.000747115400922 0.05115401722098695 0
2.166160282363312 -0.4290072483032968 0
3.688699370058314 0.816195433662226 0
1.19209843889663 -0.4343829600172697 0
1.038148474808393 -0.4344653675094186 0
3.604646530218848 -0.4661260437904214 0
2.7349283171766 -0.0733059029223566 0
1.33817969016966 -0.3586815941705222 0
2.603494866788557 -0.4024497685748958 0
0.3196816726814046 0.8153963715064764 0
1.372683204548424 -0.202290500878914 0
1.262184900658124 -0.2709813483720055 0
2.217539455437679 -0.4658650402549425 0
1.709767633814136 0.2668374651907283 0
2.71433218027948 0.4257760287077006 0
1.291630344924999 -0.4615216926199178 0
2.623726930706304 -0.1957260455947161 0
2.679333156959195 0.5798838470532267 0
2.599912990430543 -0.4675000550456957 0
2.608313193568722 -0.03746269400757016 0
3.740766012839493 -0.2675958631967886 0
1.672406136691845 -0.3405526469570744 0
1.156854658280223 -0.1551883174033741 0
1.028804432281721 -0.01677592647142596 0
1.109776075676881 -0.3600274616070585 0
1.085179288873242 -0.3913619232137613 0
1.9965723398189 0.1618198266239055 0
3.255886251304488 -0.4680792051960002 0
3.2372505316933 -0.4347721106941129 0
1.31718113938542 -0.4303117594349573 0
3.122369670253089 0.436699488851361 0
3.245363334109888 0.5534700136636512 0
3.801697877387711 -0.4743002060870592 0
3.818203355517417 -0.4306334491672495 0
3.23349621744904 0.1868968041595373 0
2.292962038328626 -0.4683240441928381 0
1.03217843290708 -0.2499471461871087 0
2.09859878793588 -0.2255973462084724 0
3.179230912240828 -0.4670851984772344 0
3.408932581463417 -0.467392159021972 0
1.909428835406465 -0.3996193643535769 0
2.973077811853828 -0.3147942883536328 0
1.037774233937527 -0.3489452020554603 0
2.96828331215442 -0.06059646554467344 0
3.563680703151603 -0.4682242247604239 0
3.064996537107007 -0.4676990141230659 0
3.490264886521001 -0.4669625818173367 0
2.374564781144735 0.2762423407545866 0
1.509964516017857 -0.3894033639188063 0
1.027380393072461 -0.08311659162299864 0
1.127890232957266 -0.4329366266284547 0
3.337453018878002 -0.4697439360461241 0
2.300976528172295 -0.1324562288200272 0
3.866313832142888 -0.4599244089700695 0
3.875925990280434 -0.3944910499557972 0
3.814864810876438 -0.3216513685332376 0
1.130613399817672 0.1079010636470993 0
1.198722031076771 0.09742774887819618 0
1.44877134764782 -0.4677884177430598 0
1.353660243153146 -0.3939675833719307 0
1.1761072692703 -0.4679390532827906 0
2.10337340386272 -0.4663750364988061 0
2.71980928885628 -0.469761882629348 0
3.473168128184289 -0.4283415992371454 0
2.440412905053692 -0.4300137013676568 0
1.237267868712187 -0.3073158852064174 0
3.112033288366196 -0.1377695491492951 0
2.85648199253875 -0.4374385550449573 0
2.895523108644347 -0.4365028809441546 0
1.579855852000418 -0.1340742616136643 0
1.577242677080246 -0.2350257020101943 0
3.693257002265211 0.414313521293231 0
1.795075614991117 -0.4661547117332115 0
1.94771553050382 -0.4697622111058722 0
0.1655528606196265 0.6945217074466821 0
2.76759589157132 -0.1502198958428411 0
2.685820768764648 -0.1515344063349315 0
2.829636736593094 0.187546876852025 0
3.846654533137166 0.7013438124651823 0
1.879576646197805 0.2755169840334659 0
2.559212655514061 -0.3337837203706962 0
1.833549817975383 -0.4215073349397627 0
1.551956256445303 -0.08421123330660231 0
2.448393596724258 0.1736133344534646 0
1.969582461854737 -0.3201684028407348 0
2.414169702483473 -0.4662858886669909 0
1.19631134068624 -0.3031805838932882 0
3.3897580600174 -0.4329079976293527 0
3.016655172597064 -0.2704102539482852 0
2.689260463435886 -0.2634491851295531 0
3.708654726395959 -0.4561158984233536 0
0.86162495125112 0.2680759387928855 0
1.559940721758446 -0.3966462225997211 0
2.162416901648056 -0.1129190716934912 0
1.031578234924326 -0.1478322486048795 0
1.2504227612176 0.05257164882430026 0
2.565732932326441 -0.4715791776323498 0
1.058392529868211 -0.03819340061441247 0
2.379645990878099 0.6592986931418447 0
1.378782635048948 -0.2498278020836234 0
0.9305494343814465 0.5504433020831356 0
1.037747009418056 0.5368277297513963 0
1.143291032559521 0.6403727571201021 0
1.026027761993856 -0.3168514150660896 0
1.553896887310033 -0.2768190027523406 0
1.466302822532785 -0.2650539608602133 0
1.492352770085548 -0.2245899535258856 0
1.730495305870265 -0.2046849811755473 0
1.839800472831378 -0.2317309799822858 0
1.709040603744812 0.6078810746326923 0
2.911265475101026 -0.4684164278721843 0
1.057488551595346 -0.09778453942640677 0
1.903048342410732 0.1768430772836461 0
3.627909222691728 -0.427772856683948 0
1.218796261803056 -0.2660499036862272 0
1.4275410891046 -0.3716110769222453 0
3.194581935579591 0.7033716427269251 0
3.378011772910825 0.5028978216960233 0
3.120710655872048 0.21524552241357 0
2.24388674192324 0.6607706757808254 0
1.624825244765226 0.2014589881198561 0
0.8772857148585169 0.1160591302519762 0
3.562254497985275 0.200787711515035 0
2.159724937973027 0.2257856476199397 0
1.054386703638298 -0.404986910310772 0
1.159704389321827 -0.4413251709843635 0
2.335810087102524 -0.3976161726133914 0
2.239699116844497 0.3153340895413108 0
2.723003490053008 0.210955516312514 0
2.133597526779318 -0.1734930747967078 0
1.02127935693253 0.01960253537378415 0
2.25479338293985 -0.1893499316617094 0
2.353161975824756 0.1732291850807738 0
2.372046576568914 -0.2235774956651236 0
0.7733972459607663 0.6897126664777327 0
1.351507281598027 0.5143413329128801 0
1.219904596370566 0.5245193663736437 0
1.58255012859668 -0.4366947990230904 0
2.865409172597911 -0.3796435087362077 0
1.441619269796316 0.06059783988200371 0
3.068308181876984 -0.2812451596449936 0
1.187141553815213 -0.1814207198555352 0
3.484449264794552 -0.2445702696580374 0
3.357108551590762 -0.1777661874791284 0
1.40117140748491 -0.001892366721526746 0
1.431064690534898 -0.2207368136723359 0
2.007342979002851 -0.2719231753935369 0
1.44911592946534 0.3996038859107427 0
1.161340101414461 -0.234802448180052 0
1.031546209962541 0.1472973097357376 0
0.9630438135920436 0.1298415422131012 0
1.067122602340467 0.4273811846266118 0
2.034049584555223 -0.1517451657145552 0
0.680654969515238 0.571360938054533 0
2.874025800548804 -0.2986750771878194 0
1.259410478741445 0.4187424835085191 0
1.757246177231683 -0.09590898738691167 0
2.229050579975238 -0.1233992627923609 0
1.775531934180244 -0.1581427469714503 0
3.546588956799475 -0.2644891393477242 0
3.675890969406272 -0.4724101340054057 0
2.795818693389709 -0.4694658859904931 0
1.204843193263645 -0.1469988658943563 0
2.00335876311756 -0.4389953809898039 0
3.107578167389331 -0.05624370260341914 0
1.83509367225456 -0.1261879893745725 0
2.235125170546317 -0.4360174898136714 0
3.664641439691281 -0.2506680541834929 0
1.445532576130241 -0.4068194185119409 0
2.045869842601698 -0.4395970223937143 0
3.274799284002079 -0.4370759391806119 0
3.235142365788417 -0.3881475100646375 0
1.871092988704449 -0.4069945766241619 0
3.155004570858588 -0.1868305282799643 0
1.602262748720773 -0.4702390219175088 0
2.059260099081853 0.8536779619865651 0
0.6132877133698051 0.7074616876960305 0
1.888019330058699 -0.06214109191508652 0
2.97080113665338 -0.4377976721674268 0
2.778434689997149 0.6891735514741231 0
2.598158891436785 -0.2991555174620165 0
0.6152111708257892 0.2385211367296287 0
2.200784504736078 -0.4390789820632398 0
2.296898274934715 -0.3975838860678457 0
2.057838796603004 0.2400309575777504 0
3.74876255162973 -0.4158738330614777 0
1.726005579837663 -0.02784303517836459 0
1.384494882054766 0.1595714376015578 0
1.737876768312809 -0.4435644966330681 0
1.253526820393447 0.1713141026340905 0
1.638772937574553 -0.4741525205143827 0
3.116158694701112 -0.4322857284405801 0
1.235661056630487 0.753257203969588 0
1.880664783774298 0.8588838221481814 0
1.636497903947546 -0.01095488139220528 0
3.513595121486305 -0.4302487072637758 0
1.972709012453583 -0.1437690245849134 0
2.486274920151859 -0.4754819412714381 0
1.029357071942171 -0.4709954367156886 0
2.638738747635014 0.7065010225190896 0
2.635598565207713 -0.2543015046245684 0
2.272590833259974 -0.4414964099306256 0
0.9736475792874734 0.08072542868969614 0
1.965772826325812 -0.4370348266122309 0
0.1450242511090706 0.1480890143166065 0
2.922592486157766 -0.3150717971284288 0
1.962945521448635 -0.3721815682177166 0
3.695043335029877 0.5645512023823144 0
2.932124776149504 -0.434271033138712 0
3.581073010638543 -0.4345936710492629 0
2.62022409664297 -0.4358605627870041 0
1.198804717515952 0.04230282661432016 0
1.70599143010738 0.1771047262258343 0
1.319930380729433 0.1558514891882365 0
3.539322782445543 -0.2031365050343116 0
3.541489050624841 -0.1251521255621469 0
1.205401238778976 -0.4017589141952524 0
1.063277960296727 -0.1300716913938827 0
3.159911520176154 -0.439576472065174 0
1.378872241961138 -0.4071887260349709 0
2.642721560904775 -0.4003232717712361 0
1.022620363767816 -0.2171328538505918 0
1.785080495389087 0.7248669797041511 0
1.02428053838125 -0.411223788897222 0
1.056353687008715 -0.3768564756162724 0
0.1464101615145262 0.8535898384856967 0
0.3100222113653829 0.4682150870574099 0
0.985386470135081 0.02312377097975448 0
2.661793921782256 -0.08411057443784681 0
2.699735311706944 -0.4416651690325619 0
1.774229678594646 -0.4414714782612331 0
1.050109609613862 -0.06665242814054435 0
3.276870780910685 -0.3571337233892428 0
1.101989756703446 -0.4194129812190502 0
3.859187307726545 0.8625231426514384 0
2.662130313705074 -0.4371230814237795 0
1.056010894344734 -0.2793225236980121 0
3.546773960069691 -0.4402361972870644 0
1.289393379235073 0.8807076072326607 0
3.867497231606537 0.3940595988517542 0
0.7032346273960008 0.1503073820901518 0
3.799278649524723 -0.3836946173556438 0
1.656492503405728 -0.4475930347631777 0
3.359246598088099 -0.4382481649889581 0
1.962305292495757 0.2407372692172532 0
1.043619245764909 0.1926339550167348 0
3.048358811889157 -0.2311878658830685 0
2.374539764875727 -0.4029112219258674 0
1.121933916067212 -0.1440614974522422 0
3.008213579147894 -0.4436738131179168 0
3.037816955737102 0.7191130425469027 0
1.642125731206923 0.7299302099605924 0
1.485343631403726 -0.4095484133179281 0
2.822150717420135 -0.4383074519503174 0
1.860444456330855 -0.4386131779500045 0
1.246277404428675 -0.4078640716223204 0
2.045410250440956 -0.2168340317468339 0
1.451828317841173 0.873519078731007 0
1.821331923944796 -0.1828288236600762 0
2.082516175579205 -0.4435163144309306 0
1.533131169957469 -0.237421776956566 0
2.674402403676325 -0.2138281434703009 0
2.232107417976033 -0.3758454295460708 0
1.945326202020351 -0.4031914029161444 0
0.8865164140804394 0.6560234053858893 0
3.656828684983719 0.2819217949624809 0
3.084520741439361 -0.4417271492033903 0
3.089375642693371 0.3133909439907984 0
1.531319368021983 -0.4128401697524998 0
2.684709634624393 0.3076260957640432 0
2.081852942009446 -0.1703386580686897 0
0.6669115747713023 0.0721266939462043 0
2.873359572268048 -0.4102782401035375 0
3.849287555591161 0.04836229539592642 0
3.666341286081044 -0.4429962023726872 0
1.947764625189272 -0.08377491672267764 0
3.478158102454751 -0.1781093257002096 0
1.261104968791503 -0.4386762946193195 0
1.810508850579924 -0.4415980128242397 0
1.581473711822168 0.8400216177949847 0
0.8417828796273701 0.2007307515199954 0
1.330578817865409 -0.4089229333646701 0
3.905975110591987 -0.2740576569709909 0
3.413976426678998 -0.1480156813180573 0
1.883422316653588 -0.3749165124338471 0
1.017304544429462 -0.4503553730361922 0
0.4549131851189684 0.2501196537834267 0
1.88678588289461 0.3608594575267681 0
3.460559934140705 -0.3956100470011163 0
2.550442629791489 -0.2867841613055175 0
3.034373104258482 -0.02816878768855898 0
1.129052223851995 0.5055803992395802 0
1.792469200889842 0.270676104955007 0
0.4621275421023464 0.7081020335194327 0
1.403922492786578 0.1025861829415811 0
$EndNodes
$Elements
7 1846 1 1846
1 1 1 9
1 1 7 
2 7 8 
3 8 9 
4 9 10 
5 10 11 
6 11 12 
7 12 13 
8 13 14 
9 14 2 
1 2 1 15
10 2 15 
11 15 16 
12 16 17 
13 17 18 
14 18 19 
15 19 20 
16 20 21 
17 21 22 
18 22 23 
19 23 24 
20 24 25 
21 25 26 
22 26 27 
23 27 28 
24 28 3 
1 3 1 77
25 3 29 
26 29 30 
27 30 31 
28 31 32 
29 32 33 
30 33 34 
31 34 35 
32 35 36 
33 36 37 
34 37 38 
35 38 39 
36 39 40 
37 40 41 
38 41 42 
39 42 43 
40 43 44 
41 44 45 
42 45 46 
43 46 47 
44 47 48 
45 48 49 
46 49 50 
47 50 51 
48 51 52 
49 52 53 
50 53 54 
51 54 55 
52 55 56 
53 56 57 
54 57 58 
55 58 59 
56 59 60 
57 60 61 
58 61 62 
59 62 63 
60 63 64 
61 64 65 
62 65 66 
63 66 67 
64 67 68 
65 68 69 
66 69 70 
67 70 71 
68 71 72 
69 72 73 
70 73 74 
71 74 75 
72 75 76 
73 76 77 
74 77 78 
75 78 79 
76 79 80 
77 80 81 
78 81 82 
79 82 83 
80 83 84 
81 84 85 
82 85 86 
83 86 87 
84 87 88 
85 88 89 
86 89 90 
87 90 91 
88 91 92 
89 92 93 
90 93 94 
91 94 95 
92 95 96 
93 96 97 
94 97 98 
95 98 99 
96 99 100 
97 100 101 
98 101 102 
99 102 103 
100 103 104 
101 104 4 
1 4 1 8
102 4 105 
103 105 106 
104 106 107 
105 107 108 
106 108 109 
107 109 110 
108 110 111 
109 111 5 
1 5 1 20
110 5 112 
111 112 113 
112 113 114 
113 114 115 
114 115 116 
115 116 117 
116 117 118 
117 118 119 
118 119 120 
119 120 121 
120 121 122 
121 122 123 
122 123 124 
123 124 125 
124 125 126 
125 126 127 
126 127 128 
127 128 129 
128 129 130 
129 130 6 
1 6 1 5
130 6 131 
131 131 132 
132 132 133 
133 133 134 
134 134 1 
2 1 2 1712
135 652 878 441 
136 167 599 593 
137 677 757 269 
138 187 189 188 
139 155 805 502 
140 283 777 765 
141 558 669 170 
142 729 775 640 
143 566 862 313 
144 625 747 430 
145 582 682 413 
146 374 775 729 
147 442 652 441 
148 188 797 650 
149 187 188 186 
150 235 712 518 
151 439 526 351 
152 155 728 597 
153 605 751 604 
154 626 837 632 
155 524 550 149 
156 597 728 476 
157 451 531 222 
158 671 718 292 
159 560 587 586 
160 439 527 526 
161 303 789 519 
162 724 847 176 
163 184 912 106 
164 153 733 618 
165 430 626 625 
166 164 607 573 
167 309 566 313 
168 559 561 433 
169 495 819 687 
170 632 837 708 
171 472 629 471 
172 515 700 453 
173 618 866 153 
174 171 681 533 
175 188 650 184 
176 108 568 158 
177 714 836 513 
178 533 800 171 
179 149 551 524 
180 518 824 235 
181 449 686 450 
182 816 824 492 
183 570 904 720 
184 593 599 556 
185 408 627 404 
186 765 777 478 
187 467 757 677 
188 380 768 509 
189 152 857 630 
190 574 577 148 
191 439 631 527 
192 605 780 751 
193 540 715 694 
194 694 715 139 
195 479 627 408 
196 409 565 491 
197 267 582 286 
198 765 785 283 
199 120 805 155 
200 474 744 621 
201 189 303 188 
202 464 686 525 
203 547 598 191 
204 627 792 251 
205 362 696 610 
206 358 660 420 
207 550 847 724 
208 509 784 380 
209 450 686 464 
210 186 188 184 
211 25 672 24 
212 596 629 472 
213 612 694 139 
214 518 699 454 
215 359 644 535 
216 193 547 191 
217 687 819 290 
218 164 726 607 
219 628 714 513 
220 378 587 560 
221 540 694 541 
222 207 858 636 
223 621 744 257 
224 179 683 663 
225 541 877 540 
226 441 878 549 
227 649 858 207 
228 37 574 148 
229 108 869 568 
230 362 803 696 
231 589 591 144 
232 413 763 582 
233 604 751 521 
234 502 749 155 
235 766 785 765 
236 453 699 515 
237 337 559 433 
238 537 704 182 
239 456 680 455 
240 600 627 251 
241 451 723 531 
242 292 718 609 
243 631 812 527 
244 471 629 497 
245 440 551 516 
246 351 526 348 
247 581 582 255 
248 687 725 495 
249 303 844 789 
250 517 569 437 
251 653 727 462 
252 222 531 219 
253 532 558 428 
254 255 582 267 
255 580 811 181 
256 303 797 188 
257 591 592 144 
258 525 779 464 
259 556 557 380 
260 680 755 455 
261 406 565 409 
262 613 614 161 
263 488 839 743 
264 342 579 421 
265 573 612 164 
266 416 517 437 
267 213 581 255 
268 577 659 148 
269 479 792 627 
270 106 186 184 
271 565 727 491 
272 465 847 549 
273 41 589 144 
274 39 174 38 
275 720 815 570 
276 55 572 54 
277 561 711 433 
278 178 602 31 
279 638 850 490 
280 558 717 669 
281 59 168 58 
282 43 166 42 
283 645 659 443 
284 576 688 592 
285 460 825 487 
286 182 856 537 
287 371 532 428 
288 490 850 427 
289 476 829 597 
290 531 787 250 
291 578 745 364 
292 639 704 537 
293 304 564 285 
294 173 848 821 
295 487 839 488 
296 678 898 722 
297 581 682 582 
298 30 185 29 
299 51 136 50 
300 448 644 359 
301 723 787 531 
302 527 796 528 
303 438 533 532 
304 288 875 525 
305 541 542 368 
306 63 172 62 
307 142 675 548 
308 295 637 364 
309 630 832 152 
310 736 775 735 
311 375 556 380 
312 492 824 518 
313 625 746 661 
314 80 616 79 
315 245 588 241 
316 229 824 816 
317 614 732 161 
318 282 309 284 
319 548 879 142 
320 47 585 46 
321 31 602 30 
322 160 672 25 
323 466 691 546 
324 84 173 83 
325 420 660 485 
326 263 282 264 
327 288 525 279 
328 38 574 37 
329 126 613 161 
330 426 593 556 
331 246 600 251 
332 779 780 486 
333 519 797 303 
334 549 878 465 
335 524 551 440 
336 88 171 87 
337 269 762 677 
338 12 604 521 
339 518 712 699 
340 569 668 143 
341 419 629 596 
342 528 813 398 
343 404 627 402 
344 313 438 371 
345 462 760 653 
346 169 615 128 
347 279 290 276 
348 173 821 545 
349 341 541 368 
350 586 818 560 
351 662 663 154 
352 646 706 436 
353 310 360 309 
354 364 849 578 
355 282 284 264 
356 462 565 407 
357 436 649 256 
358 309 313 284 
359 771 792 652 
360 270 291 271 
361 621 771 442 
362 42 589 41 
363 551 666 516 
364 582 763 286 
365 361 416 360 
366 258 270 259 
367 652 792 479 
368 39 688 174 
369 416 437 360 
370 170 693 558 
371 438 532 371 
372 96 635 95 
373 680 863 602 
374 556 599 557 
375 434 517 416 
376 764 783 372 
377 602 863 603 
378 318 411 288 
379 263 264 196 
380 550 724 149 
381 678 722 324 
382 279 525 290 
383 417 434 416 
384 197 263 196 
385 155 597 119 
386 142 616 80 
387 658 801 569 
388 411 875 288 
389 646 891 706 
390 751 780 425 
391 116 601 156 
392 636 705 258 
393 92 170 91 
394 358 897 660 
395 405 406 404 
396 432 512 511 
397 245 640 588 
398 253 640 247 
399 291 292 271 
400 205 636 258 
401 243 600 246 
402 270 271 259 
403 431 466 439 
404 592 688 144 
405 330 700 328 
406 255 267 256 
407 267 285 268 
408 363 836 714 
409 811 916 181 
410 450 462 407 
411 148 659 645 
412 276 819 274 
413 106 912 105 
414 233 235 231 
415 735 775 374 
416 286 304 285 
417 442 778 621 
418 314 315 291 
419 505 548 435 
420 175 809 601 
421 454 699 453 
422 624 746 625 
423 143 658 569 
424 233 236 235 
425 375 380 315 
426 305 341 304 
427 586 587 510 
428 195 196 193 
429 760 857 2 
430 205 258 204 
431 236 237 235 
432 174 688 576 
433 133 623 182 
434 256 649 212 
435 258 259 204 
436 342 421 341 
437 406 408 404 
438 658 800 534 
439 241 588 239 
440 236 238 237 
441 534 800 533 
442 426 556 375 
443 407 565 406 
444 432 511 431 
445 291 784 292 
446 435 548 434 
447 352 431 351 
448 370 375 315 
449 443 659 412 
450 213 255 212 
451 672 733 24 
452 504 721 322 
453 44 820 804 
454 223 254 222 
455 134 623 133 
456 720 904 790 
457 3 828 28 
458 510 872 586 
459 593 692 167 
460 406 409 408 
461 445 505 435 
462 35 583 34 
463 139 827 612 
464 204 673 201 
465 378 651 587 
466 376 426 375 
467 579 756 421 
468 49 702 48 
469 421 541 341 
470 334 559 337 
471 542 694 612 
472 784 835 292 
473 344 579 342 
474 83 545 82 
475 156 624 115 
476 378 560 559 
477 9 181 8 
478 431 439 351 
479 238 239 237 
480 510 587 397 
481 341 368 304 
482 438 534 533 
483 203 204 201 
484 727 861 491 
485 60 642 59 
486 636 706 705 
487 722 767 457 
488 46 585 135 
489 254 451 222 
490 398 813 579 
491 215 581 213 
492 255 256 212 
493 267 268 256 
494 282 310 309 
495 337 433 339 
496 238 241 239 
497 57 691 56 
498 516 617 394 
499 398 579 344 
500 663 815 154 
501 620 621 257 
502 285 287 268 
503 50 555 49 
504 637 689 364 
505 346 398 344 
506 327 651 329 
507 360 566 309 
508 460 487 461 
509 9 580 181 
510 250 581 215 
511 819 843 274 
512 227 249 225 
513 508 838 506 
514 350 351 348 
515 190 191 189 
516 293 637 295 
517 247 640 245 
518 211 212 209 
519 221 222 219 
520 217 250 215 
521 466 631 439 
522 493 593 426 
523 29 828 3 
524 275 276 274 
525 453 700 330 
526 427 493 426 
527 542 612 573 
528 332 378 334 
529 471 496 469 
530 76 141 75 
531 560 561 559 
532 640 775 588 
533 178 680 602 
534 310 361 360 
535 421 877 541 
536 169 806 615 
537 82 675 81 
538 457 523 510 
539 195 197 196 
540 267 286 285 
541 654 655 456 
542 409 491 465 
543 402 600 244 
544 153 666 22 
545 403 404 402 
546 585 586 135 
547 246 248 247 
548 409 465 410 
549 127 615 613 
550 361 417 416 
551 129 639 169 
552 138 642 60 
553 243 246 245 
554 239 588 473 
555 248 620 257 
556 158 567 187 
557 332 651 378 
558 428 460 429 
559 569 801 437 
560 232 233 231 
561 244 600 243 
562 126 161 125 
563 443 907 645 
564 263 803 282 
565 108 158 107 
566 389 654 456 
567 430 837 626 
568 22 666 21 
569 230 231 229 
570 174 574 38 
571 155 749 728 
572 378 559 334 
573 286 305 304 
574 207 636 205 
575 659 911 412 
576 412 689 637 
577 431 511 466 
578 348 526 346 
579 501 623 622 
580 239 473 240 
581 397 651 327 
582 209 649 207 
583 462 727 565 
584 682 761 413 
585 533 873 532 
586 246 247 245 
587 187 190 189 
588 58 546 57 
589 203 205 204 
590 242 243 241 
591 537 923 639 
592 445 506 505 
593 219 531 217 
594 235 824 231 
595 196 547 193 
596 564 919 285 
597 270 314 291 
598 504 910 721 
599 417 435 434 
600 305 342 341 
601 380 784 315 
602 587 651 397 
603 624 625 177 
604 352 432 431 
605 606 638 490 
606 598 845 191 
607 527 812 796 
608 405 407 406 
609 148 645 36 
610 277 279 276 
611 11 159 10 
612 346 526 398 
613 107 186 106 
614 36 645 35 
615 243 245 241 
616 573 607 606 
617 590 767 722 
618 217 531 250 
619 350 352 351 
620 730 731 614 
621 545 675 82 
622 221 223 222 
623 127 613 126 
624 118 597 175 
625 449 687 686 
626 764 806 783 
627 265 641 294 
628 314 370 315 
629 621 778 474 
630 211 213 212 
631 471 497 496 
632 534 801 658 
633 62 665 61 
634 326 457 397 
635 409 410 408 
636 186 903 187 
637 546 631 466 
638 329 651 332 
639 107 903 186 
640 300 414 307 
641 85 668 84 
642 113 632 112 
643 175 601 117 
644 769 774 236 
645 371 428 377 
646 251 620 248 
647 542 573 543 
648 35 645 583 
649 370 376 375 
650 644 647 399 
651 10 901 9 
652 326 722 457 
653 549 847 550 
654 528 892 527 
655 525 686 290 
656 313 371 316 
657 825 867 487 
658 402 627 600 
659 263 794 696 
660 677 713 365 
661 644 899 535 
662 732 822 161 
663 242 244 243 
664 601 809 484 
665 583 584 151 
666 295 364 297 
667 619 655 654 
668 248 252 247 
669 353 628 352 
670 314 705 373 
671 129 169 128 
672 120 155 119 
673 118 175 117 
674 116 156 115 
675 648 840 607 
676 403 405 404 
677 123 157 122 
678 265 293 266 
679 248 257 252 
680 166 589 42 
681 270 705 314 
682 228 229 227 
683 376 427 426 
684 252 641 265 
685 693 825 460 
686 191 845 189 
687 238 242 241 
688 174 575 574 
689 457 510 397 
690 488 743 570 
691 541 694 542 
692 399 647 476 
693 192 193 191 
694 394 617 392 
695 246 251 248 
696 294 311 293 
697 257 641 252 
698 252 265 253 
699 501 856 623 
700 11 521 159 
701 440 516 394 
702 280 288 279 
703 425 780 411 
704 412 911 689 
705 602 603 185 
706 137 572 55 
707 273 274 261 
708 546 691 57 
709 79 165 78 
710 623 856 182 
711 153 866 666 
712 239 240 237 
713 293 295 266 
714 300 745 414 
715 473 515 240 
716 12 521 11 
717 384 443 412 
718 660 661 485 
719 114 624 177 
720 63 538 172 
721 339 363 340 
722 265 266 253 
723 317 402 244 
724 633 690 151 
725 390 654 389 
726 384 412 311 
727 212 649 209 
728 467 677 367 
729 535 707 357 
730 274 817 261 
731 555 702 49 
732 225 807 223 
733 30 602 185 
734 701 869 183 
735 617 618 396 
736 34 151 33 
737 257 744 641 
738 313 862 438 
739 490 710 606 
740 505 879 548 
741 459 776 481 
742 318 425 411 
743 603 634 185 
744 54 572 162 
745 307 678 324 
746 745 798 414 
747 367 677 365 
748 121 823 805 
749 388 389 387 
750 250 682 581 
751 128 615 127 
752 617 866 618 
753 337 339 338 
754 625 626 177 
755 670 893 363 
756 383 643 498 
757 392 396 390 
758 119 597 118 
759 497 814 496 
760 388 390 389 
761 194 195 193 
762 392 617 396 
763 613 894 614 
764 265 294 293 
765 549 550 524 
766 334 337 335 
767 70 648 69 
768 513 514 512 
769 532 717 558 
770 364 745 297 
771 553 554 483 
772 813 831 544 
773 641 695 294 
774 98 790 97 
775 686 687 290 
776 117 601 116 
777 115 624 114 
778 167 791 599 
779 601 880 156 
780 72 608 71 
781 548 896 434 
782 395 440 394 
783 655 754 603 
784 197 794 263 
785 386 388 387 
786 130 639 129 
787 84 668 173 
788 446 504 322 
789 226 227 225 
790 386 387 385 
791 448 647 644 
792 542 543 368 
793 172 665 62 
794 189 845 303 
795 61 665 138 
796 176 847 741 
797 332 334 333 
798 389 455 387 
799 557 768 380 
800 682 787 761 
801 71 140 70 
802 311 637 293 
803 224 225 223 
804 312 384 311 
805 441 524 440 
806 294 312 311 
807 252 253 247 
808 168 546 58 
809 596 739 419 
810 312 695 386 
811 450 463 462 
812 410 652 479 
813 198 199 197 
814 133 182 132 
815 114 177 113 
816 612 827 164 
817 143 668 85 
818 437 566 360 
819 586 872 135 
820 64 538 63 
821 200 201 199 
822 51 562 136 
823 491 741 465 
824 532 873 717 
825 480 774 769 
826 618 672 619 
827 538 539 172 
828 393 394 392 
829 698 838 508 
830 202 203 201 
831 469 757 467 
832 292 609 271 
833 44 804 43 
834 466 889 691 
835 206 207 205 
836 618 619 396 
837 271 400 259 
838 234 769 233 
839 389 456 455 
840 412 637 311 
841 214 215 213 
842 610 876 362 
843 14 152 13 
844 343 344 342 
845 81 675 142 
846 76 594 141 
847 356 530 354 
848 622 916 501 
849 177 632 113 
850 530 664 354 
851 59 642 168 
852 274 843 817 
853 607 638 606 
854 391 392 390 
855 208 209 207 
856 470 471 469 
857 411 780 779 
858 271 609 400 
859 383 498 419 
860 312 385 384 
861 529 807 795 
862 232 234 233 
863 230 232 231 
864 345 346 344 
865 210 211 209 
866 220 221 219 
867 468 469 467 
868 347 348 346 
869 507 508 506 
870 216 217 215 
871 187 903 158 
872 349 350 348 
873 673 920 201 
874 731 732 614 
875 368 564 304 
876 568 869 701 
877 218 219 217 
878 444 445 435 
879 34 583 151 
880 584 846 633 
881 69 726 68 
882 190 192 191 
883 633 846 455 
884 522 910 504 
885 807 905 223 
886 584 633 151 
887 312 386 385 
888 158 903 107 
889 324 326 325 
890 307 324 308 
891 489 490 427 
892 326 397 327 
893 176 679 17 
894 381 750 643 
895 294 695 312 
896 414 678 307 
897 68 164 67 
898 560 860 561 
899 666 866 516 
900 228 230 229 
901 268 436 256 
902 234 924 769 
903 606 710 543 
904 503 596 472 
905 16 145 15 
906 136 555 50 
907 300 307 301 
908 16 679 145 
909 287 646 268 
910 171 657 87 
911 173 545 83 
912 264 547 196 
913 67 827 66 
914 363 893 836 
915 573 606 543 
916 484 880 601 
917 65 715 64 
918 110 183 109 
919 396 654 390 
920 609 610 400 
921 359 535 357 
922 297 300 298 
923 37 148 36 
924 166 590 589 
925 253 729 640 
926 295 297 296 
927 18 176 17 
928 17 679 16 
929 56 691 137 
930 805 823 503 
931 313 316 284 
932 488 570 520 
933 13 604 12 
934 268 646 436 
935 275 277 276 
936 393 395 394 
937 506 808 505 
938 415 467 367 
939 460 461 429 
940 398 892 528 
941 141 883 791 
942 73 692 72 
943 94 147 93 
944 102 179 101 
945 61 138 60 
946 86 143 85 
947 90 146 89 
948 41 144 40 
949 32 178 31 
950 53 703 52 
951 329 332 331 
952 592 798 576 
953 20 149 19 
954 78 740 77 
955 388 391 390 
956 701 837 430 
957 15 653 2 
958 33 690 32 
959 273 275 274 
960 158 568 567 
961 175 829 809 
962 410 479 408 
963 483 765 478 
964 584 885 846 
965 607 840 638 
966 465 878 410 
967 639 923 169 
968 258 705 270 
969 105 912 684 
970 32 690 178 
971 74 167 73 
972 661 747 625 
973 395 441 440 
974 149 851 551 
975 381 643 383 
976 167 692 73 
977 700 734 328 
978 441 549 524 
979 8 622 7 
980 363 714 340 
981 432 513 512 
982 428 918 460 
983 156 746 624 
984 391 393 392 
985 457 767 523 
986 684 871 663 
987 633 755 690 
988 317 403 402 
989 132 704 131 
990 352 628 432 
991 620 771 621 
992 486 630 463 
993 497 874 814 
994 40 688 39 
995 455 755 633 
996 697 902 557 
997 562 563 136 
998 192 194 193 
999 56 137 55 
1000 46 135 45 
1001 451 759 723 
1002 339 340 338 
1003 23 153 22 
1004 499 916 811 
1005 237 712 235 
1006 705 706 373 
1007 708 837 183 
1008 696 803 263 
1009 619 654 396 
1010 144 688 40 
1011 111 708 110 
1012 88 681 171 
1013 26 160 25 
1014 182 704 132 
1015 575 577 574 
1016 87 657 86 
1017 630 857 760 
1018 428 429 377 
1019 79 616 165 
1020 259 673 204 
1021 165 740 78 
1022 337 338 335 
1023 626 632 177 
1024 9 901 580 
1025 161 868 125 
1026 804 820 523 
1027 277 280 279 
1028 151 690 33 
1029 334 335 333 
1030 295 296 266 
1031 538 715 540 
1032 174 576 575 
1033 7 834 1 
1034 110 708 183 
1035 152 832 605 
1036 487 488 461 
1037 356 660 530 
1038 687 841 725 
1039 145 653 15 
1040 221 224 223 
1041 1 834 134 
1042 227 816 249 
1043 517 848 569 
1044 371 377 316 
1045 590 591 589 
1046 498 629 419 
1047 811 870 504 
1048 634 853 27 
1049 529 795 477 
1050 224 226 225 
1051 195 198 197 
1052 592 882 798 
1053 221 656 224 
1054 388 716 391 
1055 226 228 227 
1056 203 206 205 
1057 350 353 352 
1058 211 214 213 
1059 289 318 288 
1060 195 664 198 
1061 236 774 238 
1062 695 716 386 
1063 194 664 195 
1064 661 746 485 
1065 527 892 526 
1066 305 343 342 
1067 18 724 176 
1068 822 868 161 
1069 54 162 53 
1070 200 202 201 
1071 615 764 613 
1072 198 200 199 
1073 77 594 76 
1074 264 773 547 
1075 48 702 163 
1076 521 522 159 
1077 808 879 505 
1078 324 325 308 
1079 463 760 462 
1080 307 308 301 
1081 149 724 19 
1082 326 327 325 
1083 77 740 594 
1084 788 795 786 
1085 302 785 766 
1086 285 919 287 
1087 681 873 533 
1088 122 823 121 
1089 386 716 388 
1090 332 333 331 
1091 481 886 782 
1092 449 450 407 
1093 52 562 51 
1094 578 798 745 
1095 324 722 326 
1096 580 870 811 
1097 300 301 298 
1098 821 848 517 
1099 648 726 69 
1100 528 831 813 
1101 64 715 538 
1102 434 821 517 
1103 220 656 221 
1104 350 667 353 
1105 297 298 296 
1106 206 208 207 
1107 306 317 244 
1108 445 507 506 
1109 310 362 361 
1110 630 760 463 
1111 208 210 209 
1112 473 775 736 
1113 515 699 240 
1114 314 373 370 
1115 214 216 215 
1116 391 474 393 
1117 689 849 364 
1118 470 472 471 
1119 415 468 467 
1120 343 345 344 
1121 468 470 469 
1122 216 218 217 
1123 218 220 219 
1124 242 306 244 
1125 345 347 346 
1126 347 349 348 
1127 349 667 350 
1128 417 444 435 
1129 509 835 784 
1130 554 765 483 
1131 618 733 672 
1132 543 710 564 
1133 254 782 451 
1134 140 648 70 
1135 376 489 427 
1136 391 716 474 
1137 603 863 655 
1138 19 724 18 
1139 229 816 227 
1140 315 784 291 
1141 562 595 563 
1142 280 289 288 
1143 433 914 339 
1144 395 442 441 
1145 603 754 634 
1146 121 805 120 
1147 473 736 515 
1148 445 671 507 
1149 141 791 75 
1150 81 142 80 
1151 336 453 330 
1152 776 886 481 
1153 455 846 387 
1154 109 869 108 
1155 492 518 454 
1156 23 733 153 
1157 66 139 65 
1158 885 907 443 
1159 539 544 172 
1160 384 885 443 
1161 178 755 680 
1162 507 509 508 
1163 576 578 575 
1164 685 871 684 
1165 75 791 74 
1166 444 671 445 
1167 503 852 596 
1168 538 540 539 
1169 340 714 459 
1170 496 757 469 
1171 99 720 98 
1172 420 485 484 
1173 634 828 185 
1174 48 163 47 
1175 27 915 634 
1176 544 665 172 
1177 447 536 500 
1178 202 707 203 
1179 362 770 361 
1180 419 739 418 
1181 628 776 714 
1182 645 907 583 
1183 535 758 707 
1184 266 729 253 
1185 610 696 611 
1186 357 707 202 
1187 340 459 369 
1188 512 799 511 
1189 511 889 466 
1190 594 697 141 
1191 424 788 737 
1192 181 622 8 
1193 366 644 399 
1194 400 673 259 
1195 451 900 759 
1196 504 870 522 
1197 66 827 139 
1198 459 481 475 
1199 92 676 170 
1200 588 775 473 
1201 695 744 716 
1202 210 713 211 
1203 732 766 554 
1204 716 744 474 
1205 24 733 23 
1206 72 692 608 
1207 635 674 95 
1208 585 818 586 
1209 809 829 647 
1210 68 726 164 
1211 442 771 652 
1212 530 748 664 
1213 355 356 354 
1214 526 892 398 
1215 516 866 617 
1216 886 900 782 
1217 86 657 143 
1218 460 918 693 
1219 594 698 697 
1220 297 745 300 
1221 231 824 229 
1222 494 495 401 
1223 321 322 319 
1224 43 804 166 
1225 169 923 806 
1226 597 829 175 
1227 299 354 194 
1228 296 729 266 
1229 260 261 234 
1230 170 669 91 
1231 131 855 6 
1232 6 855 130 
1233 201 920 199 
1234 365 713 210 
1235 570 815 571 
1236 818 860 560 
1237 164 827 67 
1238 187 567 190 
1239 607 726 648 
1240 292 835 671 
1241 737 788 458 
1242 240 712 237 
1243 281 357 202 
1244 176 741 679 
1245 405 449 407 
1246 437 801 566 
1247 298 374 296 
1248 308 379 301 
1249 183 837 701 
1250 185 828 29 
1251 632 864 112 
1252 798 882 414 
1253 168 631 546 
1254 761 787 452 
1255 145 727 653 
1256 643 842 262 
1257 642 812 168 
1258 91 669 90 
1259 427 850 493 
1260 112 864 5 
1261 327 329 328 
1262 327 328 325 
1263 616 879 808 
1264 543 564 368 
1265 320 731 730 
1266 570 571 520 
1267 677 762 713 
1268 299 422 355 
1269 420 448 359 
1270 418 478 382 
1271 358 359 357 
1272 660 897 530 
1273 316 773 284 
1274 137 799 572 
1275 278 365 210 
1276 163 585 47 
1277 356 661 660 
1278 100 154 99 
1279 562 703 595 
1280 354 664 194 
1281 139 715 65 
1282 557 902 768 
1283 71 608 140 
1284 181 916 622 
1285 336 458 454 
1286 5 864 111 
1287 353 776 628 
1288 475 477 369 
1289 482 483 478 
1290 599 883 557 
1291 547 913 598 
1292 366 367 365 
1293 399 415 367 
1294 329 331 330 
1295 200 281 202 
1296 233 769 236 
1297 272 273 261 
1298 249 816 786 
1299 383 419 418 
1300 502 503 472 
1301 336 454 453 
1302 802 914 433 
1303 340 369 338 
1304 192 299 194 
1305 572 793 162 
1306 732 921 766 
1307 20 851 149 
1308 552 553 483 
1309 134 834 623 
1310 764 894 613 
1311 422 701 430 
1312 699 712 240 
1313 500 501 499 
1314 373 719 370 
1315 335 424 333 
1316 432 628 513 
1317 370 719 376 
1318 290 819 276 
1319 89 681 88 
1320 317 725 403 
1321 536 537 500 
1322 203 707 206 
1323 436 858 649 
1324 208 278 210 
1325 211 713 214 
1326 514 793 512 
1327 420 484 448 
1328 358 420 359 
1329 262 742 709 
1330 286 763 305 
1331 619 854 655 
1332 232 260 234 
1333 299 355 354 
1334 464 486 463 
1335 171 800 657 
1336 284 773 264 
1337 251 792 620 
1338 226 262 228 
1339 216 269 218 
1340 329 330 328 
1341 281 358 357 
1342 595 670 563 
1343 27 853 26 
1344 418 739 482 
1345 459 475 369 
1346 610 611 400 
1347 470 502 472 
1348 554 822 732 
1349 249 807 225 
1350 422 430 355 
1351 162 703 53 
1352 493 859 593 
1353 458 492 454 
1354 331 336 330 
1355 289 319 318 
1356 347 452 349 
1357 343 413 345 
1358 138 796 642 
1359 318 721 425 
1360 366 399 367 
1361 135 820 45 
1362 399 476 415 
1363 666 851 21 
1364 786 795 249 
1365 278 366 365 
1366 160 854 672 
1367 474 778 393 
1368 374 729 296 
1369 676 693 170 
1370 52 703 562 
1371 495 725 401 
1372 641 744 695 
1373 166 767 590 
1374 447 500 499 
1375 376 719 489 
1376 475 529 477 
1377 767 804 523 
1378 260 381 272 
1379 395 778 442 
1380 572 799 793 
1381 650 685 184 
1382 238 774 242 
1383 750 842 643 
1384 93 676 92 
1385 796 812 642 
1386 95 674 94 
1387 199 794 197 
1388 611 673 400 
1389 223 905 254 
1390 323 446 322 
1391 306 401 317 
1392 381 383 382 
1393 609 876 610 
1394 322 721 319 
1395 817 924 234 
1396 690 755 178 
1397 817 843 494 
1398 539 756 544 
1399 321 372 323 
1400 361 770 417 
1401 306 480 401 
1402 444 718 671 
1403 418 482 478 
1404 321 323 322 
1405 74 791 167 
1406 142 879 616 
1407 723 759 452 
1408 333 737 331 
1409 325 734 308 
1410 336 737 458 
1411 447 499 446 
1412 415 728 468 
1413 273 283 275 
1414 250 787 682 
1415 124 887 123 
1416 301 735 298 
1417 260 272 261 
1418 653 760 2 
1419 482 552 483 
1420 123 909 157 
1421 823 852 503 
1422 339 914 363 
1423 282 803 310 
1424 14 857 152 
1425 551 851 666 
1426 656 742 224 
1427 657 658 143 
1428 379 736 735 
1429 731 921 732 
1430 393 778 395 
1431 577 849 689 
1432 383 418 382 
1433 664 748 198 
1434 434 896 821 
1435 452 787 723 
1436 224 742 226 
1437 320 781 731 
1438 338 738 335 
1439 320 321 319 
1440 157 823 122 
1441 366 899 644 
1442 103 683 102 
1443 521 751 522 
1444 242 774 306 
1445 447 783 536 
1446 509 768 508 
1447 377 423 316 
1448 706 891 373 
1449 277 302 280 
1450 102 683 179 
1451 423 773 316 
1452 753 757 496 
1453 168 812 631 
1454 198 748 200 
1455 515 890 700 
1456 355 747 356 
1457 720 790 98 
1458 795 807 249 
1459 672 854 619 
1460 629 917 497 
1461 323 447 446 
1462 478 777 382 
1463 379 735 301 
1464 356 747 661 
1465 165 838 740 
1466 381 382 272 
1467 425 910 751 
1468 298 735 374 
1469 308 734 379 
1470 791 883 599 
1471 594 740 698 
1472 480 494 401 
1473 97 150 96 
1474 477 738 369 
1475 328 734 325 
1476 289 320 319 
1477 634 915 828 
1478 544 831 665 
1479 593 859 692 
1480 689 911 577 
1481 714 776 459 
1482 555 884 711 
1483 616 808 165 
1484 449 841 687 
1485 554 766 765 
1486 331 737 336 
1487 319 721 318 
1488 476 728 415 
1489 45 820 44 
1490 320 730 321 
1491 305 763 343 
1492 262 922 643 
1493 711 802 433 
1494 468 749 470 
1495 741 847 465 
1496 218 753 220 
1497 190 752 192 
1498 558 918 428 
1499 206 758 208 
1500 718 876 609 
1501 401 725 317 
1502 424 737 333 
1503 450 464 463 
1504 523 872 510 
1505 299 752 422 
1506 287 830 646 
1507 214 762 216 
1508 200 748 281 
1509 230 750 232 
1510 806 923 536 
1511 349 759 667 
1512 534 862 801 
1513 663 871 815 
1514 430 747 355 
1515 345 761 347 
1516 150 635 96 
1517 488 519 461 
1518 458 786 492 
1519 335 738 424 
1520 369 738 338 
1521 269 757 753 
1522 417 770 444 
1523 488 520 519 
1524 145 861 727 
1525 226 742 262 
1526 321 730 372 
1527 577 911 659 
1528 576 798 578 
1529 306 774 480 
1530 887 909 123 
1531 146 681 89 
1532 605 832 780 
1533 208 758 278 
1534 136 884 555 
1535 499 811 446 
1536 575 849 577 
1537 470 749 502 
1538 269 753 218 
1539 780 832 486 
1540 216 762 269 
1541 429 772 377 
1542 696 794 611 
1543 567 752 190 
1544 707 758 206 
1545 741 861 679 
1546 464 779 486 
1547 553 822 554 
1548 260 750 381 
1549 643 922 498 
1550 713 762 214 
1551 481 826 475 
1552 192 752 299 
1553 657 800 658 
1554 347 761 452 
1555 343 763 413 
1556 166 804 767 
1557 704 855 131 
1558 410 878 652 
1559 728 749 468 
1560 614 894 730 
1561 452 759 349 
1562 353 886 776 
1563 413 761 345 
1564 261 817 234 
1565 232 750 260 
1566 647 829 476 
1567 387 846 385 
1568 711 884 802 
1569 708 864 632 
1570 363 914 670 
1571 725 841 403 
1572 272 777 273 
1573 622 834 7 
1574 130 855 639 
1575 678 882 591 
1576 571 685 650 
1577 90 669 146 
1578 670 802 563 
1579 671 835 507 
1580 310 803 362 
1581 537 856 500 
1582 502 805 503 
1583 766 921 302 
1584 782 826 481 
1585 801 862 566 
1586 446 811 504 
1587 711 908 555 
1588 583 907 584 
1589 273 777 283 
1590 846 885 385 
1591 656 874 742 
1592 513 836 514 
1593 591 898 678 
1594 793 799 512 
1595 669 717 146 
1596 444 770 718 
1597 746 880 485 
1598 623 834 622 
1599 405 841 449 
1600 362 876 770 
1601 615 806 764 
1602 220 814 656 
1603 655 863 456 
1604 506 838 808 
1605 125 868 124 
1606 639 855 704 
1607 709 922 262 
1608 262 842 228 
1609 160 853 754 
1610 773 913 547 
1611 489 810 490 
1612 636 858 706 
1613 722 898 590 
1614 783 806 536 
1615 275 785 277 
1616 280 781 289 
1617 372 783 323 
1618 448 809 647 
1619 461 789 429 
1620 323 783 447 
1621 414 882 678 
1622 719 830 489 
1623 183 869 109 
1624 458 788 786 
1625 591 882 592 
1626 147 676 93 
1627 385 885 384 
1628 21 851 20 
1629 283 785 275 
1630 94 674 147 
1631 382 777 272 
1632 571 650 520 
1633 753 814 220 
1634 163 818 585 
1635 742 874 709 
1636 150 743 635 
1637 508 902 698 
1638 377 772 423 
1639 655 854 754 
1640 403 841 405 
1641 665 831 138 
1642 679 861 145 
1643 490 810 710 
1644 706 858 436 
1645 751 910 522 
1646 498 917 629 
1647 734 890 379 
1648 793 833 162 
1649 456 863 680 
1650 26 853 160 
1651 422 895 701 
1652 97 790 150 
1653 2 857 14 
1654 372 894 764 
1655 438 862 534 
1656 111 864 708 
1657 740 838 698 
1658 754 853 634 
1659 152 604 13 
1660 484 809 448 
1661 620 792 771 
1662 520 797 519 
1663 845 906 844 
1664 152 605 604 
1665 743 839 635 
1666 754 854 160 
1667 578 849 575 
1668 302 781 280 
1669 496 814 753 
1670 228 842 230 
1671 569 848 668 
1672 668 848 173 
1673 277 785 302 
1674 786 816 492 
1675 635 839 674 
1676 756 813 544 
1677 491 861 741 
1678 230 842 750 
1679 104 180 103 
1680 475 826 529 
1681 507 835 509 
1682 289 781 320 
1683 571 871 685 
1684 568 895 567 
1685 758 899 278 
1686 561 908 711 
1687 810 830 287 
1688 494 843 495 
1689 675 896 548 
1690 700 890 734 
1691 748 897 281 
1692 580 901 870 
1693 535 899 758 
1694 701 895 568 
1695 519 789 461 
1696 584 907 885 
1697 530 897 748 
1698 608 865 140 
1699 429 789 772 
1700 781 921 731 
1701 514 833 793 
1702 826 905 529 
1703 802 884 563 
1704 137 889 799 
1705 156 880 746 
1706 667 886 353 
1707 697 883 141 
1708 833 893 595 
1709 500 856 501 
1710 28 915 27 
1711 101 662 100 
1712 709 874 497 
1713 495 843 819 
1714 486 832 630 
1715 667 900 886 
1716 770 876 718 
1717 302 921 781 
1718 859 865 608 
1719 752 895 422 
1720 135 872 820 
1721 719 891 830 
1722 482 881 552 
1723 539 877 756 
1724 557 883 697 
1725 703 833 595 
1726 498 922 709 
1727 683 684 663 
1728 254 905 826 
1729 162 833 703 
1730 140 840 648 
1731 736 890 515 
1732 756 877 421 
1733 514 893 833 
1734 702 860 163 
1735 563 884 136 
1736 567 895 752 
1737 788 888 795 
1738 691 889 137 
1739 485 880 484 
1740 685 912 184 
1741 598 906 845 
1742 540 877 539 
1743 692 859 608 
1744 501 916 499 
1745 590 898 591 
1746 676 825 693 
1747 254 826 782 
1748 154 720 99 
1749 179 662 101 
1750 860 908 561 
1751 596 852 739 
1752 650 797 520 
1753 810 919 710 
1754 782 900 451 
1755 721 910 425 
1756 684 912 685 
1757 799 889 511 
1758 795 888 477 
1759 808 838 165 
1760 870 901 159 
1761 545 896 675 
1762 702 908 860 
1763 138 831 796 
1764 489 830 810 
1765 794 920 611 
1766 579 813 756 
1767 281 897 358 
1768 709 917 498 
1769 552 887 553 
1770 379 890 736 
1771 278 899 366 
1772 730 894 372 
1773 553 887 868 
1774 424 888 788 
1775 373 891 719 
1776 497 917 709 
1777 157 852 823 
1778 287 919 810 
1779 154 815 720 
1780 595 893 670 
1781 536 923 537 
1782 525 875 779 
1783 768 902 508 
1784 698 902 697 
1785 717 873 146 
1786 555 908 702 
1787 739 881 482 
1788 789 844 772 
1789 163 860 818 
1790 147 825 676 
1791 522 870 159 
1792 493 865 859 
1793 494 924 817 
1794 868 887 124 
1795 140 865 840 
1796 796 831 528 
1797 159 901 10 
1798 840 865 850 
1799 710 919 564 
1800 830 891 646 
1801 303 845 844 
1802 611 920 673 
1803 693 918 558 
1804 477 888 738 
1805 759 900 667 
1806 814 874 656 
1807 529 905 807 
1808 199 920 794 
1809 738 888 424 
1810 821 896 545 
1811 480 924 494 
1812 180 684 683 
1813 553 868 822 
1814 146 873 681 
1815 820 872 523 
1816 769 924 480 
1817 100 662 154 
1818 840 850 638 
1819 674 867 147 
1820 839 867 674 
1821 423 913 773 
1822 852 881 739 
1823 836 893 514 
1824 670 914 802 
1825 828 915 28 
1826 844 906 772 
1827 772 906 423 
1828 147 867 825 
1829 850 865 493 
1830 779 875 411 
1831 150 904 743 
1832 743 904 570 
1833 906 913 423 
1834 157 909 881 
1835 881 909 552 
1836 487 867 839 
1837 157 881 852 
1838 815 871 571 
1839 790 904 150 
1840 180 683 103 
1841 598 913 906 
1842 179 663 662 
1843 552 909 887 
1844 4 180 104 
1845 105 180 4 
1846 105 684 180 
$EndElements
