$MeshFormat
4.1 0 8
$EndMeshFormat
$PhysicalNames
5
1 1 "Gamma1"
1 2 "Gamma2"
1 3 "Gamma3"
1 4 "Gamma4"
2 5 "Omega"
$EndPhysicalNames
$Entities
6 6 1 0
1 0 0 0 0 
2 1 0 0 0 
3 1 -1 0 0 
4 4 -1 0 0 
5 4 1 0 0 
6 0 1 0 0 
1 0 0 0 1 0 0 1 1 2 1 -2 
2 1 -1 0 1 0 0 1 1 2 2 -3 
3 1 -1 0 4 -1 0 1 1 2 3 -4 
4 4 -1 0 4 1 0 1 4 2 4 -5 
5 0 1 0 4 1 0 1 2 2 5 -6 
6 0 0 0 0 1 0 1 3 2 6 -1 
1 0 -1 0 4 1 0 1 5 6 1 2 3 4 5 6 
$EndEntities
$Nodes
13 328 1 328
0 1 0 1
1
0 0 0
0 2 0 1
2
1 0 0
0 3 0 1
3
1 -1 0
0 4 0 1
4
4 -1 0
0 5 0 1
5
4 1 0
0 6 0 1
6
0 1 0
1 1 0 5
7
8
9
10
11
0.3142468835769045 0 0
0.5443694741913769 0 0
0.7129049081052158 0 0
0.8363170217783114 0 0
0.9266918794959899 0 0
1 2 0 12
12
13
14
15
16
17
18
19
20
21
22
23
1 -0.07692307692292683 0
1 -0.1538461538458463 0
1 -0.230769230768699 0
1 -0.3076923076915517 0
1 -0.3846153846144045 0
1 -0.4615384615372571 0
1 -0.5384615384603233 0
1 -0.6153846153836027 0
1 -0.6923076923068823 0
1 -0.7692307692301618 0
1 -0.8461538461534411 0
1 -0.9230769230767206 0
1 3 0 37
24
25
26
27
28
29
30
31
32
33
34
35
36
37
38
39
40
41
42
43
44
45
46
47
48
49
50
51
52
53
54
55
56
57
58
59
60
1.078982968772052 -1 0
1.157641529741486 -1 0
1.23630009071092 -1 0
1.314958651680354 -1 0
1.393617212649789 -1 0
1.472275773619223 -1 0
1.550934334588657 -1 0
1.629592895558091 -1 0
1.708251456527525 -1 0
1.786910017496959 -1 0
1.865568578466393 -1 0
1.944227139435827 -1 0
2.022885700405459 -1 0
2.101544261375476 -1 0
2.180202822345492 -1 0
2.258861383315508 -1 0
2.337519944285525 -1 0
2.41617850525554 -1 0
2.494837066225556 -1 0
2.573495627195572 -1 0
2.652154188165588 -1 0
2.730812749135604 -1 0
2.809471310105619 -1 0
2.888129871075636 -1 0
2.966788432045651 -1 0
3.045446993015667 -1 0
3.124105553985682 -1 0
3.202764114955698 -1 0
3.281422675925715 -1 0
3.36008123689573 -1 0
3.438739797865746 -1 0
3.517398358835762 -1 0
3.596056919805778 -1 0
3.674715480775793 -1 0
3.753374041745809 -1 0
3.832032602715825 -1 0
3.910691163685841 -1 0
1 4 0 5
61
62
63
64
65
4 -0.8235534636741645 0
4 -0.5855735656054355 0
4 -0.2636090723970362 0
4 0.149981217325432 0
4 0.5749906086627175 0
1 5 0 8
66
67
68
69
70
71
72
73
3.555555555553705 1 0
3.111111111111728 1 0
2.666666666670368 1 0
2.222222222229008 1 0
1.77777777778518 1 0
1.333333333338884 1 0
0.8888888888925885 1 0
0.4444444444462929 1 0
1 6 0 2
74
75
0 0.666666666667592 0
0 0.333333333334721 0
2 1 0 253
76
77
78
79
80
81
82
83
84
85
86
87
88
89
90
91
92
93
94
95
96
97
98
99
100
101
102
103
104
105
106
107
108
109
110
111
112
113
114
115
116
117
118
119
120
121
122
123
124
125
126
127
128
129
130
131
132
133
134
135
136
137
138
139
140
141
142
143
144
145
146
147
148
149
150
151
152
153
154
155
156
157
158
159
160
161
162
163
164
165
166
167
168
169
170
171
172
173
174
175
176
177
178
179
180
181
182
183
184
185
186
187
188
189
190
191
192
193
194
195
196
197
198
199
200
201
202
203
204
205
206
207
208
209
210
211
212
213
214
215
216
217
218
219
220
221
222
223
224
225
226
227
228
229
230
231
232
233
234
235
236
237
238
239
240
241
242
243
244
245
246
247
248
249
250
251
252
253
254
255
256
257
258
259
260
261
262
263
264
265
266
267
268
269
270
271
272
273
274
275
276
277
278
279
280
281
282
283
284
285
286
287
288
289
290
291
292
293
294
295
296
297
298
299
300
301
302
303
304
305
306
307
308
309
310
311
312
313
314
315
316
317
318
319
320
321
322
323
324
325
326
327
328
1.983512055157983 -0.9246013857766699 0
1.06393252021381 -0.115379883956296 0
2.298190663800517 -0.932589675839135 0
2.61331844947191 -0.921526729285441 0
2.931454648983003 -0.943975394343886 0
3.242093395440705 -0.9313940755769354 0
1.668922176042808 -0.9318796879753432 0
1.065366723717878 -0.4192331123748206 0
3.47471637990309 -0.9406067490886501 0
1.428928930197398 -0.9313108330505989 0
1.06756913613184 -0.652142506496187 0
3.68149543605336 -0.05681392753580211 0
2.465575147864524 0.5970465708160665 0
1.274764748472145 -0.9353543499055907 0
1.821037220502014 -0.9284040019487612 0
1.065311778829263 -0.2710407927118638 0
3.081487759985611 -0.9295971833517127 0
2.140873541860451 -0.9339082949229824 0
2.770142029620611 -0.9303804367421249 0
2.453147339403283 -0.9263769504379319 0
3.635386200290786 -0.9313301811572036 0
3.792696146710172 -0.9251341968720226 0
0.8861211196842788 0.08300895445809865 0
0.6286371911482965 0.1264169963914257 0
1.066617338752824 -0.8076923076918013 0
1.544306916341938 0.6697215832073075 0
0.288675134594212 0.5000000000011565 0
3.337640795869058 0.6693516902279973 0
3.8245396849344 -0.7030514667440493 0
1.118830253901116 -0.9352392833213929 0
3.666575733721437 -0.4027873648184224 0
3.43614498789645 -0.2236557551312779 0
3.421761335260911 -0.4920926220065361 0
3.218572530158224 -0.3670719606823656 0
3.197617259545015 -0.1078245589854499 0
2.978685262388205 -0.2975020043864791 0
2.960718093796296 -0.00869232383868325 0
2.757160853021706 -0.1694935339148798 0
2.774277883991806 -0.4064674731772159 0
2.575925826349041 -0.3123163596058973 0
2.606307013961572 -0.5129583528604413 0
2.412050933986152 -0.4604281781548767 0
2.38001277435565 -0.2381488338055669 0
2.206813628967445 -0.3910054480707433 0
2.183995884006044 -0.1661696311129607 0
2.021212153284359 -0.2937155028255662 0
1.992057773183307 -0.09434715245846195 0
1.845611151329988 -0.2294291632697868 0
1.882043364589283 -0.4067744677517316 0
1.712968212576764 -0.3701300832101738 0
1.677748606693514 -0.1900771042111308 0
1.557871052946684 -0.3030428703453923 0
1.586883358321364 -0.445985718078926 0
1.508845098791577 -0.1657544067505712 0
1.465558820089536 -0.4133655598118565 0
1.493054166949628 -0.5273822860137654 0
1.59902707469914 -0.568598720614635 0
1.383381531372537 -0.4935785961007858 0
1.407712582471903 -0.5997068594350986 0
1.347447123244221 -0.3954595296803425 0
1.622019624576236 -0.02599975360310103 0
1.465438205440795 -0.009127347271900893 0
1.310005301324329 -0.5686484504017637 0
1.335488913072806 -0.6667760428261277 0
1.42551845994515 -0.698079200479427 0
2.262270998485975 -0.5568608227497869 0
1.367133410413887 -0.1157605375986867 0
1.328337855011978 0.01240724555575515 0
2.761825271757577 -0.5990639732985193 0
1.354573430639181 -0.7592426199640829 0
1.268644583759182 -0.7309469354886754 0
2.344699340207904 -0.04868312076477343 0
1.411446420597907 0.1342318799689876 0
1.246185140271749 0.1399665453832321 0
3.239684575159878 -0.5899968292674213 0
2.641807072605658 -0.6801079973352678 0
2.727589588316386 0.1026851227003092 0
1.443047627488628 -0.7871572717788272 0
1.515061172069008 -0.7290088523415557 0
1.531376129079189 -0.8173938585759295 0
1.599884793695947 -0.7633140582587874 0
1.252399641053923 -0.09434544275196635 0
1.280787193545134 -0.2008540296575523 0
3.408156454271504 -0.7082437417650946 0
2.768017214253573 -0.7583546498517331 0
2.882790599168218 -0.6847148921736057 0
1.356169871120485 0.2991113125277943 0
1.172151573790426 0.3267780611774578 0
1.546464979021424 0.2532554650311995 0
2.497521949333013 -0.6467623092693062 0
2.034948676055621 -0.47266687355526 0
1.914222394204314 -0.5663766941323016 0
2.040923722669612 -0.6227483028847058 0
1.935154965793837 -0.7017823426703332 0
1.816338750113382 -0.657136930198199 0
2.05354134232538 -0.7666415198098562 0
1.841861222277729 -0.7713806115505443 0
1.392665858470991 -0.2271921765908423 0
2.487589429995245 -0.7803762294853238 0
2.381161632806381 -0.7262802202009334 0
3.074459411911159 -0.52406013539709 0
1.187746997600213 -0.1746909455894952 0
1.20157036948617 -0.2818212701137753 0
2.928082604040745 0.2754904116540476 0
1.094005093526431 0.1804663536832387 0
0.9638548344397501 0.3234827718093072 0
1.074864698497068 0.5284415634926343 0
0.8431146923025122 0.5462784482820872 0
3.567905592133878 -0.62192912228389 0
1.288096898456106 -0.8172601421411236 0
1.210334928719353 -0.7928746035329604 0
1.188215578164835 -0.7049492267286579 0
1.739451227979245 -0.7389726083079677 0
1.924154671463806 0.6512651400257941 0
2.196393608147146 0.318445639455851 0
1.766282291222663 -0.8441924808743342 0
1.943929835284169 -0.8287145765897197 0
3.246419911078279 -0.7767029936486489 0
3.098566780334614 -0.7148048723510335 0
1.784782760419482 -0.5219329294157766 0
1.278559845685448 -0.4688631415366369 0
1.215446523383067 -0.5422811915000351 0
1.187595002052749 -0.4554464611349737 0
1.133083546322071 -0.5229810517413498 0
1.148237778628154 -0.6186796248884391 0
2.155784837274986 -0.6662841493588416 0
2.186512636190075 -0.7919999831659998 0
1.14561764641533 0.0426790052040746 0
1.239670029038745 -0.3773942523305258 0
1.142618245419669 -0.3779734427716704 0
1.618752103133842 -0.8625447813373397 0
1.546817643431083 -0.9071100893656843 0
3.613733672207602 0.3578959536129549 0
1.371981835447948 -0.8490997904060434 0
0.4606589267968977 0.1287746997322649 0
0.56566450209104 0.3074862629127264 0
3.537828123006217 -0.7535565310457405 0
3.367411674764931 -0.8456534834530672 0
2.656938815413171 -0.8209891574879247 0
2.877250915153154 -0.8102096479368349 0
1.244339779722062 -0.6387135786389497 0
1.065509593798655 -0.02611707883395252 0
0.7770722396109049 0.09129440245355272 0
0.8451071583880863 0.2010591505816029 0
2.889620711941895 0.6267671460728211 0
1.196027012107692 -0.9336277830782032 0
1.145621529196085 -0.8552872700110001 0
1.063546653003765 -0.1951682733710401 0
1.352724424808698 -0.9322537929610462 0
1.066617338752455 -0.3461538461529782 0
1.741044211757763 -0.9292088432161428 0
1.067810587218292 -0.5746082228281152 0
1.064441320014498 -0.7304852895436792 0
2.402015827231951 -0.8317088130334945 0
2.305718295812924 -0.7977971417735663 0
2.219532102830495 -0.9354834580732587 0
3.321973696055589 -0.9283039717221651 0
2.534166346710562 -0.9318796879748422 0
2.374882186156145 -0.92808792785586 0
3.162886748884846 -0.930962475912062 0
3.13630687119405 -0.8447541068746438 0
3.02968297486904 -0.849150050086526 0
2.692363163490413 -0.9213556589679714 0
2.861908103388011 -0.9148526698576158 0
3.006117712530665 -0.9318796879748453 0
2.062207586763338 -0.9307559683442546 0
1.904237889142315 -0.9262714112714998 0
1.141713607990861 -0.07613295293615145 0
1.699031084569201 -0.6258549450871039 0
1.505553586855967 -0.6313579025837035 0
3.399410517380734 -0.9318796879748429 0
3.546820060792273 -0.9291496370410807 0
1.313756222218026 -0.301196596079832 0
3.714040788973063 -0.9281295520918311 0
3.673721739913717 -0.8575655217740107 0
3.894575419304611 -0.9348400012986897 0
0.9633459397479945 0.06348669466016367 0
1.80031911633302 -0.04907529098229335 0
1.955299383910779 0.1152905332993451 0
1.709178158304294 0.1301108943493753 0
1.747612049887678 0.3622686074622091 0
2.024463510634414 -0.8624409541820632 0
1.132626778776239 -0.7639327316358302 0
0.2580895293567196 0.2105638289974683 0
0.5590591249221215 0.593505878581158 0
1.064771594125196 -0.8826407083082036 0
3.413393730994359 0.1189680932022291 0
1.855469691685778 -0.8597926164469719 0
1.592948065000974 -0.6653714966177402 0
2.573495627195571 -0.8512816687353879 0
1.233592296741519 -0.8678375798405954 0
1.467623583088483 -0.8679301815853204 0
2.150491743021385 0.04128391842898253 0
2.104821121227954 -0.8619776485785602 0
1.04765964434519 0.06984077159895381 0
2.54311020339192 -0.07352903774882867 0
1.679926144758303 -0.7982254637053712 0
1.064246674549798 -0.4958158727574889 0
1.29054507479008 0.4960050469655659 0
2.733044568544462 -0.8561839737845697 0
2.275901438798754 -0.6912575863703101 0
2.975818922863116 -0.756392645900397 0
2.90465659985719 -0.5397855187800844 0
3.847023730571983 -0.8421604646235863 0
2.689422287190036 0.388439206877596 0
2.445325988305614 0.1893840428236004 0
1.125197297089628 -0.2307058571250767 0
1.120529977809839 -0.6923076923068827 0
3.666953865701838 -0.7419913145172103 0
3.68177780280287 0.6816061855486371 0
0.7523853427473196 0.3571428655082649 0
2.494837066225557 -0.8627935136444129 0
3.831941220860243 -0.5164496032856418 0
2.80947131010562 -0.8632856142107264 0
3.276132558459038 -0.8691526037169185 0
2.987258462826859 -0.6439516129204422 0
3.147097815807191 0.1310357850631171 0
2.140814049024631 -0.545360604541377 0
1.604756074915018 -0.9402469135661359 0
1.120263005915437 -0.3015390417750728 0
1.217896158658387 0.7504034600392382 0
0.9526485277025483 0.7120585653399969 0
0.2584357407925252 0.7520345090499813 0
1.312210550354833 -0.8810251646522602 0
0.9642371741705269 0.1593192117401229 0
1.660324343763511 -0.7095519649553804 0
1.058070620135467 -0.9420678668302918 0
1.420396759522893 -0.3244583181059535 0
1.493316052984969 -0.9412702208003207 0
2.365781390682055 -0.6163178233490426 0
1.550909477588132 0.09649422769491207 0
2.32793367126341 -0.8721279294120277 0
3.212767897011384 -0.8705932511458419 0
3.475771447132076 -0.8532537646965062 0
1.119219190040547 -0.4580728496030674 0
1.69486210875461 -0.8707768884984187 0
1.114718918769213 -0.1538215532727341 0
1.983566670154306 0.3542888186706731 0
2.253015032040485 -0.8676574795638901 0
3.221594888476807 0.3632515133055279 0
3.589413572806151 -0.8444744917052921 0
2.581287769795852 -0.7646819723737791 0
1.675063526716883 -0.4974936175679941 0
2.947333098730411 -0.8591438748150014 0
1.49044284318921 0.4243642459696982 0
2.186208525481362 0.5812705868090018 0
3.715335342495846 -0.6063106079814409 0
1.476361485091062 -0.2552814026550873 0
2.180475440597826 -0.8767698245936918 0
0.7137732867971295 0.2166799355695145 0
1.229733687762878 0.0007391557699758893 0
3.753198944654816 -0.8201008508220202 0
0.7376311356532127 0.7703685784406484 0
$EndNodes
$Elements
7 654 1 654
1 1 1 6
1 1 7 
2 7 8 
3 8 9 
4 9 10 
5 10 11 
6 11 2 
1 2 1 13
7 2 12 
8 12 13 
9 13 14 
10 14 15 
11 15 16 
12 16 17 
13 17 18 
14 18 19 
15 19 20 
16 20 21 
17 21 22 
18 22 23 
19 23 3 
1 3 1 38
20 3 24 
21 24 25 
22 25 26 
23 26 27 
24 27 28 
25 28 29 
26 29 30 
27 30 31 
28 31 32 
29 32 33 
30 33 34 
31 34 35 
32 35 36 
33 36 37 
34 37 38 
35 38 39 
36 39 40 
37 40 41 
38 41 42 
39 42 43 
40 43 44 
41 44 45 
42 45 46 
43 46 47 
44 47 48 
45 48 49 
46 49 50 
47 50 51 
48 51 52 
49 52 53 
50 53 54 
51 54 55 
52 55 56 
53 56 57 
54 57 58 
55 58 59 
56 59 60 
57 60 4 
1 4 1 6
58 4 61 
59 61 62 
60 62 63 
61 63 64 
62 64 65 
63 65 5 
1 5 1 9
64 5 66 
65 66 67 
66 67 68 
67 68 69 
68 69 70 
69 70 71 
70 71 72 
71 72 73 
72 73 6 
1 6 1 3
73 6 74 
74 74 75 
75 75 1 
2 1 2 579
76 211 259 210 
77 192 242 76 
78 236 308 193 
79 222 258 100 
80 100 261 222 
81 114 278 111 
82 102 259 211 
83 147 281 268 
84 111 278 176 
85 90 263 191 
86 176 291 194 
87 187 216 200 
88 150 159 108 
89 194 236 193 
90 191 226 90 
91 194 237 236 
92 174 317 165 
93 107 108 106 
94 87 106 63 
95 85 267 209 
96 108 184 106 
97 209 224 85 
98 116 151 144 
99 176 194 150 
100 101 256 189 
101 151 160 144 
102 80 319 239 
103 200 283 187 
104 79 238 214 
105 109 150 108 
106 268 281 190 
107 125 195 124 
108 150 193 159 
109 169 192 171 
110 104 279 61 
111 116 144 114 
112 67 220 103 
113 220 315 103 
114 143 157 142 
115 142 173 129 
116 115 116 114 
117 157 177 158 
118 208 315 262 
119 124 167 166 
120 62 104 61 
121 167 195 170 
122 101 189 70 
123 180 203 149 
124 192 257 171 
125 157 158 142 
126 117 165 116 
127 123 124 121 
128 196 197 138 
129 190 281 88 
130 192 263 242 
131 167 169 168 
132 165 317 151 
133 200 227 86 
134 205 225 83 
135 200 216 197 
136 123 125 124 
137 178 205 204 
138 121 166 119 
139 170 172 169 
140 61 279 251 
141 125 318 195 
142 230 276 202 
143 166 293 119 
144 71 101 70 
145 113 114 111 
146 83 310 205 
147 157 243 177 
148 119 141 117 
149 169 171 168 
150 131 245 132 
151 76 257 192 
152 64 87 63 
153 133 196 138 
154 137 142 129 
155 86 283 200 
156 87 107 106 
157 195 244 170 
158 7 259 1 
159 106 288 63 
160 130 133 131 
161 186 258 222 
162 188 191 172 
163 151 214 160 
164 127 130 128 
165 167 168 166 
166 172 192 169 
167 167 170 169 
168 124 195 167 
169 117 305 165 
170 130 131 128 
171 133 134 131 
172 124 166 121 
173 211 260 102 
174 127 128 125 
175 191 263 172 
176 194 277 237 
177 107 109 108 
178 177 178 158 
179 63 288 62 
180 126 127 125 
181 116 165 151 
182 197 216 138 
183 135 196 133 
184 103 315 208 
185 133 138 134 
186 184 322 106 
187 109 176 150 
188 97 327 249 
189 271 281 147 
190 170 188 172 
191 113 115 114 
192 239 319 215 
193 222 261 105 
194 193 213 159 
195 165 175 174 
196 179 315 220 
197 115 117 116 
198 254 256 255 
199 152 281 271 
200 243 312 177 
201 196 198 197 
202 245 264 132 
203 217 270 2 
204 202 276 201 
205 119 293 141 
206 69 88 68 
207 138 139 134 
208 198 199 197 
209 209 267 153 
210 111 176 109 
211 159 184 108 
212 130 135 133 
213 107 262 110 
214 247 309 84 
215 171 202 201 
216 126 129 127 
217 146 216 187 
218 135 204 196 
219 137 143 142 
220 178 295 205 
221 217 243 203 
222 75 102 74 
223 229 234 95 
224 122 123 121 
225 145 209 153 
226 159 212 184 
227 180 270 203 
228 155 207 206 
229 70 189 69 
230 171 269 202 
231 199 227 200 
232 203 270 217 
233 131 132 128 
234 123 126 125 
235 163 180 149 
236 146 185 145 
237 206 294 82 
238 214 265 79 
239 139 145 140 
240 160 161 144 
241 1 259 75 
242 282 312 223 
243 139 216 146 
244 146 186 185 
245 175 229 174 
246 123 253 126 
247 247 316 309 
248 139 146 145 
249 150 194 193 
250 199 200 197 
251 215 289 239 
252 211 286 260 
253 160 215 161 
254 173 323 129 
255 145 153 140 
256 67 103 66 
257 189 321 69 
258 185 209 145 
259 141 305 117 
260 254 268 190 
261 71 296 101 
262 75 259 102 
263 204 205 198 
264 257 269 171 
265 155 267 207 
266 139 140 134 
267 87 262 107 
268 155 206 156 
269 138 216 139 
270 201 276 141 
271 120 121 119 
272 204 248 178 
273 238 275 214 
274 249 327 250 
275 110 111 109 
276 205 310 198 
277 88 220 68 
278 146 187 186 
279 153 155 154 
280 91 282 223 
281 118 119 117 
282 101 320 256 
283 172 263 192 
284 158 173 142 
285 9 218 99 
286 112 113 111 
287 8 210 7 
288 267 304 207 
289 68 220 67 
290 66 285 5 
291 196 204 198 
292 127 303 130 
293 126 253 136 
294 88 281 280 
295 171 201 168 
296 69 321 88 
297 203 326 149 
298 25 221 105 
299 30 294 207 
300 9 99 8 
301 91 223 14 
302 256 320 164 
303 27 224 89 
304 6 298 73 
305 25 105 24 
306 13 77 12 
307 13 223 77 
308 89 221 26 
309 12 217 2 
310 207 304 30 
311 244 318 132 
312 26 221 25 
313 85 224 28 
314 27 89 26 
315 15 225 91 
316 29 85 28 
317 15 91 14 
318 28 224 27 
319 14 223 13 
320 181 286 219 
321 5 285 65 
322 32 82 31 
323 16 225 15 
324 83 225 16 
325 17 83 16 
326 20 86 19 
327 21 228 20 
328 22 100 21 
329 20 228 86 
330 101 296 274 
331 100 228 21 
332 260 328 73 
333 175 230 229 
334 82 311 206 
335 32 226 82 
336 33 226 32 
337 135 248 204 
338 221 222 105 
339 170 244 188 
340 42 95 41 
341 44 79 43 
342 46 94 45 
343 52 81 51 
344 38 93 37 
345 40 78 39 
346 48 80 47 
347 50 92 49 
348 60 251 59 
349 54 246 53 
350 56 247 55 
351 58 249 57 
352 36 76 35 
353 34 90 33 
354 65 208 64 
355 134 245 131 
356 35 242 34 
357 157 326 243 
358 256 313 189 
359 279 327 97 
360 37 241 36 
361 141 293 201 
362 39 231 38 
363 88 321 190 
364 90 226 33 
365 128 318 125 
366 19 227 18 
367 155 156 154 
368 41 234 40 
369 149 326 143 
370 95 287 229 
371 86 227 19 
372 158 248 173 
373 187 258 186 
374 76 242 35 
375 34 242 90 
376 153 154 140 
377 43 233 42 
378 93 241 37 
379 36 241 76 
380 64 208 87 
381 45 238 44 
382 23 261 22 
383 38 231 93 
384 78 231 39 
385 156 264 154 
386 144 278 114 
387 207 294 206 
388 47 239 46 
389 95 234 41 
390 40 234 78 
391 49 240 48 
392 79 233 43 
393 42 233 95 
394 195 318 244 
395 222 266 186 
396 177 282 178 
397 51 235 50 
398 260 286 183 
399 94 238 45 
400 44 238 79 
401 73 298 260 
402 53 232 52 
403 132 264 244 
404 80 239 47 
405 46 239 94 
406 129 323 127 
407 202 314 230 
408 135 303 248 
409 55 84 54 
410 48 240 80 
411 92 240 49 
412 152 271 113 
413 100 258 228 
414 57 96 56 
415 50 235 92 
416 81 235 51 
417 219 300 181 
418 120 122 121 
419 59 97 58 
420 206 272 156 
421 52 232 81 
422 53 246 232 
423 77 217 12 
424 254 313 256 
425 186 266 185 
426 178 248 158 
427 24 302 3 
428 84 246 54 
429 55 247 84 
430 193 290 213 
431 160 289 215 
432 89 266 221 
433 243 326 203 
434 96 247 56 
435 57 249 96 
436 260 298 102 
437 118 120 119 
438 22 261 100 
439 3 302 23 
440 97 249 58 
441 59 251 97 
442 10 218 9 
443 248 303 173 
444 136 137 129 
445 115 118 117 
446 159 309 212 
447 89 299 266 
448 188 272 191 
449 110 112 111 
450 107 110 109 
451 154 264 245 
452 270 300 252 
453 140 245 134 
454 153 267 155 
455 254 255 253 
456 190 313 254 
457 17 273 83 
458 72 297 296 
459 230 307 229 
460 112 152 113 
461 208 262 87 
462 122 253 123 
463 11 98 10 
464 213 309 159 
465 31 294 30 
466 264 301 244 
467 208 285 103 
468 30 304 29 
469 220 280 179 
470 154 245 140 
471 227 273 18 
472 73 328 72 
473 143 326 157 
474 72 296 71 
475 177 312 282 
476 148 149 143 
477 127 323 303 
478 214 275 160 
479 221 266 222 
480 201 293 168 
481 242 263 90 
482 126 136 129 
483 272 301 156 
484 258 283 228 
485 199 273 227 
486 85 304 267 
487 266 299 185 
488 88 280 220 
489 191 311 226 
490 187 283 258 
491 313 321 189 
492 226 311 82 
493 202 324 314 
494 163 181 180 
495 190 321 313 
496 18 273 17 
497 253 255 136 
498 103 285 66 
499 74 298 6 
500 198 310 199 
501 185 299 209 
502 209 299 224 
503 282 295 178 
504 137 148 143 
505 118 147 120 
506 102 298 74 
507 112 179 152 
508 113 271 115 
509 162 163 149 
510 252 300 98 
511 77 243 217 
512 229 287 174 
513 168 293 166 
514 210 259 7 
515 65 285 208 
516 241 257 76 
517 273 310 83 
518 255 256 164 
519 228 283 86 
520 244 301 188 
521 309 316 212 
522 62 288 104 
523 183 286 181 
524 275 289 160 
525 181 300 180 
526 79 265 233 
527 175 276 230 
528 205 295 225 
529 161 278 144 
530 122 254 253 
531 284 316 250 
532 262 292 110 
533 120 268 122 
534 229 307 234 
535 82 294 31 
536 84 309 246 
537 179 280 152 
538 115 271 118 
539 280 281 152 
540 224 299 89 
541 274 320 101 
542 105 302 24 
543 182 183 181 
544 99 325 211 
545 276 305 141 
546 77 312 243 
547 148 162 149 
548 2 252 11 
549 262 315 292 
550 23 302 261 
551 188 301 272 
552 237 240 92 
553 225 295 91 
554 29 304 85 
555 130 303 135 
556 236 237 92 
557 148 164 162 
558 240 319 80 
559 284 327 104 
560 93 269 241 
561 212 316 284 
562 136 306 137 
563 215 277 161 
564 180 300 270 
565 94 275 238 
566 99 210 8 
567 165 305 175 
568 206 311 272 
569 175 305 276 
570 147 268 120 
571 223 312 77 
572 151 317 214 
573 122 268 254 
574 118 271 147 
575 246 309 213 
576 99 211 210 
577 156 301 264 
578 211 325 286 
579 132 318 128 
580 286 325 219 
581 2 270 252 
582 218 325 99 
583 241 269 257 
584 104 327 279 
585 162 274 163 
586 261 302 105 
587 212 284 184 
588 255 306 136 
589 11 252 98 
590 112 292 179 
591 232 246 213 
592 163 182 181 
593 110 292 112 
594 199 310 273 
595 98 218 10 
596 174 287 265 
597 194 291 277 
598 277 319 237 
599 161 291 278 
600 91 295 282 
601 233 287 95 
602 104 322 284 
603 265 287 233 
604 164 306 255 
605 237 319 240 
606 148 306 164 
607 239 289 94 
608 215 319 277 
609 137 306 148 
610 98 300 219 
611 278 291 176 
612 106 322 288 
613 274 296 182 
614 163 274 182 
615 93 324 269 
616 272 311 191 
617 78 314 231 
618 94 289 275 
619 234 307 78 
620 182 297 183 
621 213 290 232 
622 98 219 218 
623 231 324 93 
624 265 317 174 
625 183 328 260 
626 235 236 92 
627 164 320 162 
628 269 324 202 
629 288 322 104 
630 250 327 284 
631 292 315 179 
632 193 308 290 
633 307 314 78 
634 277 291 161 
635 314 324 231 
636 162 320 274 
637 232 290 81 
638 296 297 182 
639 81 308 235 
640 249 250 96 
641 251 279 97 
642 230 314 307 
643 214 317 265 
644 284 322 184 
645 303 323 173 
646 235 308 236 
647 290 308 81 
648 96 316 247 
649 219 325 218 
650 297 328 183 
651 72 328 297 
652 250 316 96 
653 4 251 60 
654 61 251 4 
$EndElements
