$MeshFormat
4.1 0 8
$EndMeshFormat
$PhysicalNames
5
1 1 "Gamma1"
1 2 "Gamma2"
1 3 "Gamma3"
1 4 "Gamma4"
2 5 "Omega"
$EndPhysicalNames
$Entities
6 6 1 0
1 0 0 0 0 
2 1 0 0 0 
3 1 -1.5 0 0 
4 4 -1.5 0 0 
5 4 1 0 0 
6 0 1 0 0 
1 0 0 0 1 0 0 1 1 2 1 -2 
2 1 -1.5 0 1 0 0 1 1 2 2 -3 
3 1 -1.5 0 4 -1.5 0 1 1 2 3 -4 
4 4 -1.5 0 4 1 0 1 4 2 4 -5 
5 0 1 0 4 1 0 1 2 2 5 -6 
6 0 0 0 0 1 0 1 3 2 6 -1 
1 0 -1.5 0 4 1 0 1 5 6 1 2 3 4 5 6 
$EndEntities
$Nodes
13 391 1 391
0 1 0 1
1
0 0 0
0 2 0 1
2
1 0 0
0 3 0 1
3
1 -1.5 0
0 4 0 1
4
4 -1.5 0
0 5 0 1
5
4 1 0
0 6 0 1
6
0 1 0
1 1 0 5
7
8
9
10
11
0.3028791498417529 0 0
0.5305266117595421 0 0
0.7016286932237122 0 0
0.8302261416053456 0 0
0.9268789868034233 0 0
1 2 0 18
12
13
14
15
16
17
18
19
20
21
22
23
24
25
26
27
28
29
1 -0.07894736842070023 0
1 -0.157894736841458 0
1 -0.2368421052621382 0
1 -0.3157894736828817 0
1 -0.3947368421036531 0
1 -0.4736842105244244 0
1 -0.5526315789451958 0
1 -0.6315789473659672 0
1 -0.7105263157867385 0
1 -0.7894736842078021 0
1 -0.8684210526291574 0
1 -0.9473684210505127 0
1 -1.026315789471868 0
1 -1.105263157893223 0
1 -1.184210526314579 0
1 -1.263157894735934 0
1 -1.342105263157289 0
1 -1.421052631578645 0
1 3 0 37
30
31
32
33
34
35
36
37
38
39
40
41
42
43
44
45
46
47
48
49
50
51
52
53
54
55
56
57
58
59
60
61
62
63
64
65
66
1.082479362136799 -1.5 0
1.161043425988267 -1.5 0
1.239607489839735 -1.5 0
1.318171553691203 -1.5 0
1.396735617542671 -1.5 0
1.475299681394139 -1.5 0
1.553863745245607 -1.5 0
1.632427809097075 -1.5 0
1.710991872948543 -1.5 0
1.789555936800011 -1.5 0
1.868120000651479 -1.5 0
1.946684064502947 -1.5 0
2.02524812835463 -1.5 0
2.103812192206679 -1.5 0
2.182376256058729 -1.5 0
2.260940319910779 -1.5 0
2.339504383762828 -1.5 0
2.418068447614877 -1.5 0
2.496632511466926 -1.5 0
2.575196575318975 -1.5 0
2.653760639171024 -1.5 0
2.732324703023073 -1.5 0
2.810888766875122 -1.5 0
2.889452830727171 -1.5 0
2.96801689457922 -1.5 0
3.046580958431269 -1.5 0
3.125145022283318 -1.5 0
3.203709086135366 -1.5 0
3.282273149987416 -1.5 0
3.360837213839465 -1.5 0
3.439401277691514 -1.5 0
3.517965341543563 -1.5 0
3.596529405395612 -1.5 0
3.675093469247661 -1.5 0
3.75365753309971 -1.5 0
3.832221596951759 -1.5 0
3.910785660803807 -1.5 0
1 4 0 6
67
68
69
70
71
72
4 -1.318394882181099 0
4 -1.0715806088791 0
4 -0.7350515697132105 0
4 -0.3071829592178721 0
4 0.1285446938547521 0
4 0.5642723469273756 0
1 5 0 8
73
74
75
76
77
78
79
80
3.555555555553705 1 0
3.111111111111728 1 0
2.666666666670368 1 0
2.222222222229008 1 0
1.77777777778518 1 0
1.333333333338884 1 0
0.8888888888925885 1 0
0.4444444444462929 1 0
1 6 0 2
81
82
0 0.666666666667592 0
0 0.333333333334721 0
2 1 0 309
83
84
85
86
87
88
89
90
91
92
93
94
95
96
97
98
99
100
101
102
103
104
105
106
107
108
109
110
111
112
113
114
115
116
117
118
119
120
121
122
123
124
125
126
127
128
129
130
131
132
133
134
135
136
137
138
139
140
141
142
143
144
145
146
147
148
149
150
151
152
153
154
155
156
157
158
159
160
161
162
163
164
165
166
167
168
169
170
171
172
173
174
175
176
177
178
179
180
181
182
183
184
185
186
187
188
189
190
191
192
193
194
195
196
197
198
199
200
201
202
203
204
205
206
207
208
209
210
211
212
213
214
215
216
217
218
219
220
221
222
223
224
225
226
227
228
229
230
231
232
233
234
235
236
237
238
239
240
241
242
243
244
245
246
247
248
249
250
251
252
253
254
255
256
257
258
259
260
261
262
263
264
265
266
267
268
269
270
271
272
273
274
275
276
277
278
279
280
281
282
283
284
285
286
287
288
289
290
291
292
293
294
295
296
297
298
299
300
301
302
303
304
305
306
307
308
309
310
311
312
313
314
315
316
317
318
319
320
321
322
323
324
325
326
327
328
329
330
331
332
333
334
335
336
337
338
339
340
341
342
343
344
345
346
347
348
349
350
351
352
353
354
355
356
357
358
359
360
361
362
363
364
365
366
367
368
369
370
371
372
373
374
375
376
377
378
379
380
381
382
383
384
385
386
387
388
389
390
391
1.077864539240868 -0.2900723761759532 0
2.306769357157807 -1.437862475150998 0
2.696516931385083 -1.420472685639816 0
1.907465685155294 -1.43501623376627 0
1.071457889568271 -0.6693094301286716 0
3.007298926505244 -1.431961524879583 0
1.59537231980398 -1.429511378000555 0
1.068370426614823 -0.9868421052611904 0
3.235134711676188 -1.44508397409994 0
3.476608742251193 -1.42371604095242 0
1.346882685813731 -1.426516181022521 0
2.442132468503582 0.6009291076712665 0
3.685139881073301 -0.5347124386423912 0
1.068370426614823 -1.223684210525256 0
1.068009699026987 -0.828950533001646 0
1.068280525855059 -0.5073640968330183 0
2.060850798424379 -1.431667513807814 0
1.750273904874277 -1.433226863875754 0
1.067365827696135 -0.1184210526310782 0
2.459479048561608 -1.422139640046894 0
2.847373899663868 -1.442929622562865 0
3.640498471081148 -1.440323381823357 0
3.79858875208866 -1.422063346198254 0
0.8863815105701275 0.06242296913622983 0
0.6233161972754759 0.1320018907158613 0
1.214892925522763 -1.429815542141805 0
1.577975719007039 0.6635854570629056 0
3.330958937885051 0.5922336176750611 0
0.2690305450858989 0.4829743483074216 0
1.061640229174205 -1.380677053896835 0
3.80792511562991 -1.201118596234102 0
3.657878248410833 -0.8417514087687128 0
3.386631734891806 -0.7141688797238194 0
3.384265061367588 -0.393892115167032 0
3.138700426065173 -0.5474272235829227 0
3.106608021326256 -0.2679540081092632 0
2.879950917794628 -0.4460458440514803 0
2.932113758902706 -0.7156110274314831 0
2.682677660739767 -0.6106745038553273 0
2.694723093155026 -0.8418515983457414 0
2.502674792826017 -0.7431963527037713 0
2.461087099175386 -0.5272609617939901 0
2.292033367335945 -0.6918384068637423 0
2.257163117286183 -0.4524259450237276 0
2.102071977773754 -0.5966134676021093 0
2.119528576104747 -0.7886718214283693 0
1.955065995789827 -0.7164766963679094 0
1.922788489611716 -0.5409969578393754 0
1.795232015400169 -0.6593859763087319 0
1.754454309210249 -0.4966241297758303 0
1.830738131066054 -0.8147643218886792 0
1.688254453311847 -0.7648720481028507 0
1.714143291030315 -0.8995870484947062 0
1.592439497214206 -0.8607765527530713 0
1.566317247115537 -0.7384430930886894 0
1.870949372625128 -0.3783715928123275 0
1.703824996483324 -0.3314524430846 0
1.858053529543962 -0.9527810550591796 0
1.614230113632216 -0.9793487630340936 0
1.505900468315752 -0.9453293113612569 0
1.52799822570409 -1.060118644059133 0
1.83045319124436 -0.2023851162010675 0
1.651651127858472 -0.1612429251050937 0
1.428146491662538 -1.025106534379348 0
1.387537504443575 -0.9121385950298875 0
1.641461415804112 -1.099003075659996 0
2.426243233689928 -0.3001628476338769 0
1.44741780698029 -1.124674838525531 0
1.355731866552182 -1.094456934332743 0
1.531563441429244 -0.3063247336930857 0
1.481943516101762 -0.1357276954156813 0
2.528773712055672 -0.9441404836236742 0
2.884574012785756 -0.9379020506245611 0
1.786059430156579 -0.006813003182198471 0
1.374662766993435 -1.185698928930336 0
1.460699734546518 -1.218459086185284 0
1.287182481569802 -1.156338760011093 0
1.266812502635802 -1.068696652940957 0
1.376623609500877 -0.2486787289119709 0
1.410612200853971 -0.3855659621998627 0
3.435276050688008 -0.980868587818911 0
1.306342784553427 -1.244208513626912 0
1.332421894810752 -0.1072943449388006 0
1.420163126620636 0.009084697925788462 0
1.278002717275392 0.02966475605115556 0
1.289186877084654 -0.3397446895423504 0
1.305840782659167 -0.4667053140141722 0
1.990635636321588 -0.0709692523669756 0
1.948572143045363 0.1660710830361272 0
2.178349266291836 0.07706046761242664 0
1.4272593364674 -0.5083704356593828 0
1.343492161101791 -0.5824808300823261 0
1.373383697449789 0.1628921865497747 0
1.21177427741382 0.1784873310968111 0
2.836647906665637 -0.1480368230040785 0
1.202861226340273 -1.129124356978689 0
3.312151115488948 -0.127635108393999 0
1.241045000309873 -0.5574237012904193 0
1.266116484293504 -0.654391375522539 0
1.365586634907794 -0.6917731292749305 0
1.282680279328861 -0.7560517772881421 0
1.1451518852769 0.6390722828800398 0
1.698794932511723 0.2056681715565643 0
1.185336578999671 -1.044735835028759 0
1.243971685095604 -0.983032995533303 0
1.897471259390529 0.4236954401563876 0
1.196971996356009 -0.7247532189104371 0
1.211328301081016 -0.8156138564164654 0
0.7558260816544258 0.7097929237649506 0
1.124554094171362 -1.101222633590215 0
2.701895689505953 -1.042965596273861 0
2.540599074702591 -1.113928040508054 0
2.40278071556364 -1.045403437813837 0
2.864068515279552 -1.112190605822043 0
3.012352844672278 -1.056738214572758 0
2.429604180296725 -1.19459992273133 0
2.294461448345449 -1.162232427908668 0
2.547718352259501 -1.250304467947774 0
2.991026693339183 -1.226687873931787 0
3.128095485226585 -1.165318155102821 0
2.267943911299613 -1.00439074498769 0
2.169865674700068 -1.101045342948489 0
2.183004211164529 -1.224879177028428 0
2.075447544124108 -1.182904538356071 0
2.046717751076474 -1.070164084229273 0
1.96489701196655 -1.15306567196974 0
1.990160356956021 -1.257265512911995 0
1.887056646895771 -1.22929712472497 0
1.856593654658334 -1.130276339444856 0
1.790194048828595 -1.203729312813189 0
1.827730179542749 -1.298453977914731 0
1.715888925330597 -1.281976495502352 0
2.842996026952439 -1.264467154522683 0
3.067783515022433 -0.9029996573849376 0
3.120508939458246 -1.317692400183746 0
3.24042428437966 -1.257392689733091 0
1.236951332943715 -0.212978150035568 0
1.20890599956895 -0.08391226782827996 0
1.145245275739872 0.02772920934228854 0
1.053623675612016 0.1539056906596993 0
1.31450631106102 0.331655309945181 0
1.112523323649109 0.3688298061593596 0
0.9268936304207931 0.3128164261825434 0
1.17968311322838 -0.3092814646194442 0
1.202763634640587 -0.4063927156523526 0
1.116058755279136 -0.3754711211836158 0
2.654030787619417 -1.187088191204152 0
1.296904591161823 -0.8523231615470888 0
1.920611960014003 -1.317529719634341 0
2.649686500898202 -1.322422049341981 0
2.543697035259738 -1.364677830387392 0
2.451719348115446 -1.317912096896484 0
2.345907363534913 -1.283399577297771 0
1.149215045621279 -0.9596306695124386 0
1.612330026647598 -0.4544229860888316 0
1.642853007755883 -0.6166091861238101 0
1.75284624616676 -1.104422618932061 0
1.98436498697548 -0.8690069749433609 0
2.092375036481045 -1.287315068368377 0
2.185821206218712 -1.339349717319247 0
2.011233728524413 -1.355123427255557 0
2.880534572405086 0.621628316141322 0
2.701210109398486 0.322218340787244 0
3.038976849701713 0.2972620354812373 0
1.390241508249602 -1.273972260981984 0
1.472673998584548 -1.306291027310909 0
1.546213406021114 -1.252507683773849 0
1.315486155379097 -1.338300580403035 0
1.237616342539221 -1.298277454577154 0
1.554289764841731 -1.352282267297141 0
1.477482251855352 -1.378569366031669 0
1.536010043335263 -1.164853474483782 0
1.632182828130684 -1.203418680719182 0
2.375787810890345 -1.378833172963574 0
1.160149694439016 -0.6346365457723762 0
1.480949280601758 -0.8302519802087943 0
0.4481152698830647 0.1306571660785021 0
0.5147098708937387 0.3111734161296982 0
1.220324909419331 -1.215235512297537 0
1.148377479851772 -1.274854617519721 0
2.118799543381504 -0.956290470978179 0
1.449877902969671 -0.6216068669458219 0
1.405246503418959 -1.359971436077621 0
1.279103437144349 -1.40274379613254 0
0.784555610881371 0.09992108300120024 0
0.7401332204327298 0.2422632488328565 0
1.068108489521773 -0.03570109534708434 0
1.925149483462662 -1.054648435276087 0
2.366792682840362 -0.8638141834611269 0
1.06835679759656 -1.302607972794523 0
1.672080931461581 -1.431750356020789 0
1.632427809097078 -1.363840894029505 0
1.070398181941031 -0.9099405549141706 0
1.066124868381616 -0.7497099938532067 0
1.828848577488759 -1.436271273790781 0
1.142615237580094 -0.8673810692927973 0
3.626276110149492 -1.080270312149125 0
3.447621159996243 -1.175563892389468 0
3.580998034488643 -1.245503309347606 0
1.070445457332104 -0.1996611855023673 0
1.075703575485672 -0.5882445191095766 0
1.140343079688127 -1.18509211979033 0
3.307151770207233 -1.433300845501591 0
2.143084054251388 -1.431026326701743 0
2.221658287984755 -1.431961524879585 0
3.162344972674298 -1.42603911998397 0
1.331911625481058 -1.005260334961134 0
2.93937663252085 -1.342471892214602 0
2.609128704237661 -1.424520373751161 0
2.75414429738829 -1.340368297006473 0
0.9774342419522922 0.06887158281716488 0
2.183857823258528 -0.2084353007724229 0
1.182261236122065 -1.354349257762219 0
2.771606734949098 -1.431961524879579 0
2.928734862653199 -1.431961524879589 0
3.08198263365211 -1.420786876177685 0
1.37884909477472 -0.7950133144149195 0
3.568135651322379 -1.427126559444039 0
3.396675747757084 -1.425277907247498 0
3.320534847485142 -1.341481398856359 0
3.283467493857846 -1.113282629839109 0
1.711266141108724 -1.367186991348098 0
3.713457060789346 -1.426770939025098 0
1.148822855361144 -0.5372196929467753 0
3.90128545486226 -1.424728368173053 0
2.067345191478396 -0.3902445160010593 0
0.9055383261513719 0.1583632131395336 0
1.125658338636445 -1.421396096229651 0
1.222211296995258 -0.9006771177044369 0
3.670043064271377 0.3327344566610157 0
1.591553774400109 0.005887313270810912 0
1.985966096428788 -1.433189203631991 0
3.630939056467172 -0.09581433780520762 0
1.131947404938993 -0.457715732646817 0
1.140598506491409 -0.2368421052621609 0
0.2391541465456406 0.2083189322733713 0
3.769066850791292 -1.339111744294805 0
1.134603831578709 -0.7847228368285252 0
2.393956671746023 -0.05683842036728722 0
3.239222840173023 -0.9322653445892525 0
1.620787555950406 -1.282565458180343 0
2.632351541784812 -0.38795443089744 0
1.065218421993044 -1.148154734231446 0
1.14247956106939 -0.155127021613367 0
1.428712420631423 -1.436179200715609 0
2.108659424898841 0.6778343687534492 0
1.063392878212851 -1.061875453144414 0
3.542388581534974 -1.350277378105231 0
2.134079324455144 0.3530475725932483 0
1.536718313657222 -0.5521505371322434 0
1.499287010272468 0.352916687300148 0
0.9435798723166774 0.536251256875206 0
1.728601837611752 -1.012210943767777 0
1.060891424195637 -0.4273725268641327 0
1.787417459406703 -1.369443596261722 0
1.462712340686197 -0.7226731659391846 0
2.098672964779987 -1.368896410690547 0
3.231016587646794 -1.370165071393116 0
2.536826774968981 -1.44226756883709 0
1.820662471069277 0.6862768518349899 0
2.73079054500499 -1.252798713937853 0
2.40573392356321 0.2265874026192578 0
1.301757773720659 -0.9317871733635075 0
3.858442801718685 -1.331605842628464 0
0.5026812706997463 0.6194902093497339 0
2.282646082439793 -1.357911453747025 0
2.234877799944882 -0.8673185340964428 0
3.818415894838047 -0.98595449914885 0
2.574775010974118 -0.1659770348968068 0
1.521060784308274 -1.436229358857965 0
3.172584592963574 -0.7553875611383107 0
1.11725881627621 -1.34677699964059 0
1.125861656064724 -0.7126264050986433 0
1.04888233656519 0.04296107749441368 0
2.379597411337881 -1.447154345350848 0
1.868120000651475 -1.377869411827237 0
3.083218909456459 0.01344372378800048 0
2.258368062340679 -1.273554470660228 0
0.2432312520463876 0.7538262448649494 0
1.709544518709479 -1.173042051555256 0
3.354467665488787 0.1994333911153034 0
1.058162761307935 -1.442846120851131 0
1.119456464911071 -1.025791856091362 0
1.824248950288694 -1.050867878495992 0
2.757138826956508 -1.165543716712649 0
3.689726679109033 0.6880305569280792 0
0.7306373244030184 0.455297913522498 0
1.516636508250945 0.1472898113206173 0
2.841893329937815 -1.363463977828529 0
1.126421030719224 -0.0730864456155042 0
3.028038765095126 -1.347920113477481 0
1.049061859100635 -0.3552631578932675 0
3.343800331842468 -1.241013546448503 0
3.426953873493453 -1.317347121424486 0
1.69030124062032 0.4580627803304353 0
0.9487781064190002 0.7572645298146082 0
1.9886482429856 -0.2500811556307705 0
1.999218141558999 -0.9784065198294578 0
1.207233467451625 -0.485898433831528 0
1.945154108651806 -1.384431135385547 0
3.659246606119203 -1.337693859357601 0
1.531695762436902 -0.65029656984595 0
3.146184435790433 -1.034120800297776 0
1.502444391517413 -0.4322058480847525 0
1.350679252680622 0.5451126249400984 0
2.846377151025842 0.105594415063017 0
1.279108726429382 -1.456995838005754 0
2.626450128895552 0.0472579800335577 0
1.241059494205702 -1.361420741465519 0
$EndNodes
$Elements
7 780 1 780
1 1 1 6
1 1 7 
2 7 8 
3 8 9 
4 9 10 
5 10 11 
6 11 2 
1 2 1 19
7 2 12 
8 12 13 
9 13 14 
10 14 15 
11 15 16 
12 16 17 
13 17 18 
14 18 19 
15 19 20 
16 20 21 
17 21 22 
18 22 23 
19 23 24 
20 24 25 
21 25 26 
22 26 27 
23 27 28 
24 28 29 
25 29 3 
1 3 1 38
26 3 30 
27 30 31 
28 31 32 
29 32 33 
30 33 34 
31 34 35 
32 35 36 
33 36 37 
34 37 38 
35 38 39 
36 39 40 
37 40 41 
38 41 42 
39 42 43 
40 43 44 
41 44 45 
42 45 46 
43 46 47 
44 47 48 
45 48 49 
46 49 50 
47 50 51 
48 51 52 
49 52 53 
50 53 54 
51 54 55 
52 55 56 
53 56 57 
54 57 58 
55 58 59 
56 59 60 
57 60 61 
58 61 62 
59 62 63 
60 63 64 
61 64 65 
62 65 66 
63 66 4 
1 4 1 7
64 4 67 
65 67 68 
66 68 69 
67 69 70 
68 70 71 
69 71 72 
70 72 5 
1 5 1 9
71 5 73 
72 73 74 
73 74 75 
74 75 76 
75 76 77 
76 77 78 
77 78 79 
78 79 80 
79 80 6 
1 6 1 3
80 6 81 
81 81 82 
82 82 1 
2 1 2 698
83 113 346 67 
84 260 318 259 
85 302 340 285 
86 106 309 267 
87 96 272 262 
88 257 283 87 
89 193 196 155 
90 83 228 226 
91 281 383 113 
92 219 226 168 
93 312 363 315 
94 274 304 214 
95 232 291 85 
96 80 347 191 
97 262 284 96 
98 312 315 71 
99 218 340 302 
100 214 323 274 
101 113 383 319 
102 250 266 93 
103 199 360 235 
104 161 219 168 
105 111 318 260 
106 93 265 250 
107 281 376 330 
108 134 238 137 
109 233 234 102 
110 236 275 90 
111 147 299 230 
112 122 193 155 
113 95 114 69 
114 199 235 198 
115 87 355 257 
116 115 163 114 
117 235 348 256 
118 140 240 133 
119 257 306 283 
120 256 348 84 
121 267 309 268 
122 168 227 169 
123 286 287 242 
124 152 237 139 
125 233 291 232 
126 252 352 89 
127 279 281 113 
128 131 238 134 
129 196 215 201 
130 236 278 275 
131 216 353 120 
132 154 194 193 
133 78 387 109 
134 227 381 169 
135 304 337 214 
136 83 374 228 
137 85 292 232 
138 165 219 161 
139 195 198 194 
140 153 161 152 
141 217 298 288 
142 121 122 120 
143 161 168 162 
144 122 155 120 
145 80 191 79 
146 222 356 221 
147 68 113 67 
148 102 341 233 
149 209 243 241 
150 154 193 122 
151 123 154 122 
152 119 120 117 
153 258 299 147 
154 35 352 327 
155 230 345 147 
156 94 245 244 
157 195 271 203 
158 295 354 310 
159 255 323 214 
160 240 263 128 
161 161 162 152 
162 283 306 98 
163 198 200 194 
164 167 221 220 
165 95 115 114 
166 242 339 286 
167 128 349 125 
168 198 234 200 
169 214 337 213 
170 78 109 77 
171 133 240 129 
172 254 255 148 
173 297 371 103 
174 295 310 108 
175 127 128 125 
176 184 387 78 
177 163 279 114 
178 70 95 69 
179 143 254 148 
180 200 233 232 
181 226 317 83 
182 201 217 202 
183 114 350 69 
184 127 129 128 
185 142 258 147 
186 198 235 234 
187 176 221 167 
188 152 386 237 
189 125 349 271 
190 115 322 163 
191 167 220 165 
192 193 367 196 
193 165 220 219 
194 145 152 139 
195 194 229 193 
196 131 134 133 
197 119 121 120 
198 270 380 140 
199 196 201 197 
200 69 350 68 
201 243 339 241 
202 214 362 255 
203 131 133 129 
204 226 228 227 
205 181 257 189 
206 241 242 205 
207 153 165 161 
208 280 376 281 
209 154 271 195 
210 154 195 194 
211 140 380 240 
212 226 227 168 
213 104 383 300 
214 204 205 199 
215 134 135 133 
216 238 384 137 
217 163 280 279 
218 94 244 75 
219 234 256 102 
220 168 169 162 
221 253 352 252 
222 129 240 128 
223 290 371 297 
224 176 222 221 
225 89 274 252 
226 130 131 129 
227 195 199 198 
228 121 123 122 
229 169 180 174 
230 132 238 131 
231 7 318 1 
232 237 238 132 
233 134 136 135 
234 136 141 135 
235 180 257 181 
236 327 352 253 
237 136 258 142 
238 208 209 206 
239 142 143 141 
240 206 241 205 
241 220 326 219 
242 99 339 243 
243 325 329 25 
244 120 353 117 
245 136 142 141 
246 181 189 183 
247 200 232 229 
248 142 146 143 
249 204 206 205 
250 280 281 279 
251 221 372 220 
252 139 237 132 
253 249 255 254 
254 71 315 70 
255 212 213 210 
256 210 231 209 
257 145 153 152 
258 209 241 206 
259 205 360 199 
260 272 354 262 
261 261 262 251 
262 180 181 174 
263 215 290 201 
264 146 150 143 
265 164 261 251 
266 224 225 222 
267 116 117 115 
268 208 210 209 
269 231 243 209 
270 189 190 183 
271 261 284 262 
272 257 355 189 
273 300 383 330 
274 80 361 347 
275 213 231 210 
276 170 294 172 
277 239 335 148 
278 288 340 217 
279 125 271 123 
280 244 246 110 
281 201 373 217 
282 147 289 146 
283 200 234 233 
284 82 111 81 
285 196 197 155 
286 212 214 213 
287 130 132 131 
288 76 94 75 
289 135 140 133 
290 217 218 202 
291 245 246 244 
292 225 309 222 
293 247 248 158 
294 77 342 328 
295 126 127 125 
296 137 258 136 
297 146 151 150 
298 159 261 164 
299 143 148 141 
300 248 265 253 
301 151 157 150 
302 235 256 234 
303 118 119 117 
304 163 303 280 
305 176 224 222 
306 78 378 184 
307 134 137 136 
308 159 164 157 
309 157 247 158 
310 127 130 129 
311 150 254 143 
312 236 311 278 
313 151 159 157 
314 135 335 140 
315 240 380 263 
316 109 342 77 
317 169 174 173 
318 127 308 130 
319 164 250 247 
320 302 375 218 
321 124 125 123 
322 247 265 248 
323 160 178 159 
324 74 244 110 
325 185 313 156 
326 181 183 182 
327 248 253 252 
328 178 261 159 
329 157 158 150 
330 186 192 178 
331 207 208 206 
332 219 326 317 
333 142 147 146 
334 155 216 120 
335 201 202 197 
336 211 212 210 
337 160 186 178 
338 75 244 74 
339 203 204 199 
340 192 284 178 
341 164 247 157 
342 164 251 250 
343 250 265 247 
344 148 362 239 
345 12 269 2 
346 169 381 180 
347 241 339 242 
348 177 324 119 
349 151 160 159 
350 82 318 111 
351 219 317 226 
352 1 318 82 
353 200 229 194 
354 243 314 99 
355 123 271 154 
356 310 354 112 
357 290 297 88 
358 248 252 249 
359 268 309 225 
360 90 365 236 
361 130 308 138 
362 215 367 343 
363 192 325 284 
364 74 110 73 
365 235 360 348 
366 262 295 251 
367 331 344 94 
368 9 267 107 
369 187 236 186 
370 178 284 261 
371 93 327 265 
372 77 328 76 
373 196 367 215 
374 284 325 96 
375 192 329 325 
376 190 230 183 
377 217 340 218 
378 6 361 80 
379 248 249 158 
380 169 173 162 
381 112 272 28 
382 181 182 174 
383 29 112 28 
384 27 272 96 
385 27 96 26 
386 28 272 27 
387 24 90 23 
388 148 335 141 
389 90 275 23 
390 166 167 165 
391 23 275 22 
392 34 93 33 
393 37 89 36 
394 32 108 31 
395 8 259 7 
396 22 97 21 
397 22 275 97 
398 38 273 37 
399 21 276 20 
400 37 273 89 
401 39 100 38 
402 20 87 19 
403 97 276 21 
404 180 306 257 
405 40 277 39 
406 328 331 94 
407 100 273 38 
408 20 276 87 
409 41 86 40 
410 204 263 207 
411 9 107 8 
412 39 277 100 
413 86 277 40 
414 116 118 117 
415 147 345 289 
416 249 323 255 
417 19 283 18 
418 13 101 12 
419 18 98 17 
420 15 83 14 
421 14 282 13 
422 204 207 206 
423 211 239 212 
424 208 211 210 
425 87 283 19 
426 95 116 115 
427 43 99 42 
428 52 296 51 
429 58 91 57 
430 44 286 43 
431 46 84 45 
432 48 102 47 
433 45 287 44 
434 50 291 49 
435 60 301 59 
436 62 300 61 
437 66 307 65 
438 54 297 53 
439 56 298 55 
440 64 305 63 
441 212 362 214 
442 117 353 115 
443 158 254 150 
444 94 344 245 
445 115 353 322 
446 146 289 151 
447 160 187 186 
448 335 366 140 
449 265 327 253 
450 294 321 172 
451 18 283 98 
452 101 269 12 
453 83 282 14 
454 13 282 101 
455 189 320 190 
456 92 376 301 
457 31 310 30 
458 51 85 50 
459 223 387 224 
460 191 378 79 
461 84 287 45 
462 44 287 286 
463 43 286 99 
464 113 350 279 
465 260 347 111 
466 255 362 148 
467 53 103 52 
468 124 126 125 
469 85 296 292 
470 138 139 132 
471 278 311 190 
472 118 177 119 
473 183 299 182 
474 250 391 266 
475 42 314 41 
476 55 88 54 
477 274 323 252 
478 99 314 42 
479 41 314 86 
480 151 289 160 
481 185 370 313 
482 51 296 85 
483 85 291 50 
484 121 124 123 
485 57 288 56 
486 174 264 173 
487 252 323 249 
488 213 358 231 
489 103 296 52 
490 53 297 103 
491 59 285 58 
492 109 387 333 
493 203 263 204 
494 195 203 199 
495 290 373 201 
496 160 289 187 
497 55 298 88 
498 88 297 54 
499 108 310 31 
500 67 346 307 
501 61 92 60 
502 228 316 227 
503 273 274 89 
504 91 288 57 
505 288 298 56 
506 251 391 250 
507 63 104 62 
508 275 278 97 
509 58 285 91 
510 59 301 285 
511 321 344 172 
512 30 364 3 
513 65 105 64 
514 2 356 293 
515 303 375 280 
516 246 363 110 
517 207 270 208 
518 266 389 93 
519 108 389 266 
520 26 325 25 
521 11 106 10 
522 92 301 60 
523 61 300 92 
524 72 312 71 
525 100 304 273 
526 263 349 128 
527 229 367 193 
528 104 300 62 
529 63 305 104 
530 25 329 24 
531 79 378 78 
532 171 185 156 
533 333 377 109 
534 35 327 34 
535 307 346 105 
536 65 307 105 
537 105 305 64 
538 126 308 127 
539 293 356 222 
540 249 254 158 
541 144 145 139 
542 10 267 9 
543 187 311 236 
544 76 328 94 
545 333 387 223 
546 98 336 17 
547 291 341 49 
548 48 341 102 
549 230 299 183 
550 217 373 298 
551 287 348 242 
552 306 316 98 
553 190 311 230 
554 162 386 152 
555 237 332 238 
556 266 391 108 
557 182 264 174 
558 215 343 292 
559 294 308 126 
560 97 320 276 
561 84 357 256 
562 3 364 29 
563 299 338 182 
564 149 294 126 
565 36 352 35 
566 273 304 274 
567 130 138 132 
568 102 357 47 
569 46 357 84 
570 208 270 211 
571 256 357 102 
572 93 389 33 
573 32 389 108 
574 73 368 5 
575 5 368 72 
576 170 379 294 
577 153 166 165 
578 321 390 344 
579 15 374 83 
580 245 388 246 
581 231 382 243 
582 70 315 95 
583 347 361 111 
584 177 351 324 
585 278 320 97 
586 88 373 290 
587 141 335 135 
588 258 338 299 
589 49 341 48 
590 96 325 26 
591 103 371 296 
592 263 380 207 
593 175 176 167 
594 108 391 295 
595 260 369 347 
596 116 179 118 
597 271 349 203 
598 17 336 16 
599 34 327 93 
600 267 268 107 
601 262 354 295 
602 236 365 186 
603 119 324 121 
604 124 149 126 
605 190 320 278 
606 215 371 290 
607 24 329 90 
608 186 365 192 
609 337 358 213 
610 224 387 184 
611 83 317 282 
612 197 216 155 
613 319 346 113 
614 179 363 359 
615 137 338 258 
616 81 361 6 
617 218 303 202 
618 269 372 221 
619 177 390 351 
620 171 188 185 
621 218 375 303 
622 100 337 304 
623 188 331 328 
624 170 172 171 
625 294 379 308 
626 296 371 292 
627 277 337 100 
628 292 371 215 
629 163 322 303 
630 138 144 139 
631 166 175 167 
632 330 383 281 
633 316 336 98 
634 189 355 320 
635 111 361 81 
636 149 321 294 
637 105 346 319 
638 264 332 173 
639 242 360 205 
640 182 338 264 
641 145 313 153 
642 187 345 311 
643 336 374 16 
644 170 171 156 
645 320 355 276 
646 268 369 260 
647 144 156 145 
648 330 376 92 
649 47 357 46 
650 144 170 156 
651 232 343 229 
652 121 324 124 
653 95 315 116 
654 223 224 176 
655 259 318 7 
656 286 339 99 
657 279 350 114 
658 140 366 270 
659 110 363 312 
660 156 313 145 
661 239 362 212 
662 310 364 30 
663 116 315 179 
664 89 352 36 
665 359 363 246 
666 110 368 73 
667 112 354 272 
668 311 345 230 
669 68 350 113 
670 270 366 211 
671 153 313 166 
672 292 343 232 
673 289 345 187 
674 276 355 87 
675 239 366 335 
676 282 326 101 
677 124 324 149 
678 388 390 177 
679 29 364 112 
680 86 358 277 
681 16 374 15 
682 332 386 173 
683 233 341 291 
684 112 364 310 
685 277 358 337 
686 192 365 329 
687 224 334 225 
688 107 259 8 
689 179 359 118 
690 328 342 188 
691 338 384 264 
692 348 360 242 
693 172 331 171 
694 298 373 88 
695 317 326 282 
696 184 334 224 
697 301 376 302 
698 312 368 110 
699 84 348 287 
700 33 389 32 
701 203 349 263 
702 2 293 11 
703 107 268 260 
704 175 223 176 
705 228 336 316 
706 306 381 316 
707 211 366 239 
708 118 359 177 
709 107 260 259 
710 144 379 170 
711 269 356 2 
712 225 369 268 
713 222 309 293 
714 171 331 188 
715 72 368 312 
716 316 381 227 
717 86 382 358 
718 137 384 338 
719 295 391 251 
720 175 333 223 
721 11 293 106 
722 197 385 216 
723 228 374 336 
724 149 351 321 
725 342 377 188 
726 322 385 303 
727 207 380 270 
728 172 344 331 
729 322 353 216 
730 106 267 10 
731 314 382 86 
732 109 377 342 
733 237 386 332 
734 308 379 138 
735 305 383 104 
736 303 385 202 
737 173 386 162 
738 202 385 197 
739 329 365 90 
740 324 351 149 
741 358 382 231 
742 101 372 269 
743 221 356 269 
744 347 369 191 
745 326 372 101 
746 333 370 185 
747 180 381 306 
748 334 369 225 
749 220 372 326 
750 188 377 185 
751 216 385 322 
752 175 370 333 
753 293 309 106 
754 243 382 314 
755 264 384 332 
756 344 390 245 
757 332 384 238 
758 138 379 144 
759 343 367 229 
760 166 370 175 
761 313 370 166 
762 319 383 305 
763 91 340 288 
764 185 377 333 
765 351 390 321 
766 359 388 177 
767 301 302 285 
768 300 330 92 
769 375 376 280 
770 246 388 359 
771 302 376 375 
772 184 378 334 
773 191 369 334 
774 334 378 191 
775 245 390 388 
776 105 319 305 
777 4 307 66 
778 67 307 4 
779 285 340 91 
780 315 363 179 
$EndElements
