$MeshFormat
4.1 0 8
$EndMeshFormat
$PhysicalNames
5
1 1 "Gamma1"
1 2 "Gamma2"
1 3 "Gamma3"
1 4 "Gamma4"
2 5 "Omega"
$EndPhysicalNames
$Entities
6 6 1 0
1 0 0 0 0 
2 1 0 0 0 
3 1 -0.5 0 0 
4 4 -0.5 0 0 
5 4 1 0 0 
6 0 1 0 0 
1 0 0 0 1 0 0 1 1 2 1 -2 
2 1 -0.5 0 1 0 0 1 1 2 2 -3 
3 1 -0.5 0 4 -0.5 0 1 1 2 3 -4 
4 4 -0.5 0 4 1 0 1 4 2 4 -5 
5 0 1 0 4 1 0 1 2 2 5 -6 
6 0 0 0 0 1 0 1 3 2 6 -1 
1 0 -0.5 0 4 1 0 1 5 6 1 2 3 4 5 6 
$EndEntities
$Nodes
13 248 1 248
0 1 0 1
1
0 0 0
0 2 0 1
2
1 0 0
0 3 0 1
3
1 -0.5 0
0 4 0 1
4
4 -0.5 0
0 5 0 1
5
4 1 0
0 6 0 1
6
0 1 0
1 1 0 5
7
8
9
10
11
0.3175009157529342 0 0
0.5479997733353065 0 0
0.7153393766934334 0 0
0.8368171134532543 0 0
0.9250052762051052 0 0
1 2 0 6
12
13
14
15
16
17
1 -0.07142857142843367 0
1 -0.1428571428567969 0
1 -0.2142857142851601 0
1 -0.2857142857137215 0
1 -0.357142857142481 0
1 -0.4285714285712405 0
1 3 0 37
18
19
20
21
22
23
24
25
26
27
28
29
30
31
32
33
34
35
36
37
38
39
40
41
42
43
44
45
46
47
48
49
50
51
52
53
54
1.078667098016871 -0.5 0
1.157334196033743 -0.5 0
1.236001294050614 -0.5 0
1.314668392067486 -0.5 0
1.393335490084357 -0.5 0
1.472002588101229 -0.5 0
1.5506696861181 -0.5 0
1.629336784134972 -0.5 0
1.708003882151843 -0.5 0
1.786670980168714 -0.5 0
1.865338078185586 -0.5 0
1.944005176202457 -0.5 0
2.022672274219525 -0.5 0
2.101339372236978 -0.5 0
2.180006470254432 -0.5 0
2.258673568271886 -0.5 0
2.337340666289339 -0.5 0
2.416007764306793 -0.5 0
2.494674862324246 -0.5 0
2.573341960341699 -0.5 0
2.652009058359153 -0.5 0
2.730676156376606 -0.5 0
2.809343254394059 -0.5 0
2.888010352411512 -0.5 0
2.966677450428965 -0.5 0
3.045344548446419 -0.5 0
3.124011646463872 -0.5 0
3.202678744481325 -0.5 0
3.281345842498778 -0.5 0
3.360012940516231 -0.5 0
3.438680038533684 -0.5 0
3.517347136551138 -0.5 0
3.596014234568591 -0.5 0
3.674681332586044 -0.5 0
3.753348430603497 -0.5 0
3.832015528620951 -0.5 0
3.910682626638404 -0.5 0
1 4 0 4
55
56
57
58
4 -0.3307065067247217 0
4 -0.1048466787963074 0
4 0.1975209376538727 0
4 0.5899902646145299 0
1 5 0 8
59
60
61
62
63
64
65
66
3.555555555553705 1 0
3.111111111111728 1 0
2.666666666670368 1 0
2.222222222229008 1 0
1.77777777778518 1 0
1.333333333338884 1 0
0.8888888888925885 1 0
0.4444444444462929 1 0
1 6 0 2
67
68
0 0.666666666667592 0
0 0.333333333334721 0
2 1 0 180
69
70
71
72
73
74
75
76
77
78
79
80
81
82
83
84
85
86
87
88
89
90
91
92
93
94
95
96
97
98
99
100
101
102
103
104
105
106
107
108
109
110
111
112
113
114
115
116
117
118
119
120
121
122
123
124
125
126
127
128
129
130
131
132
133
134
135
136
137
138
139
140
141
142
143
144
145
146
147
148
149
150
151
152
153
154
155
156
157
158
159
160
161
162
163
164
165
166
167
168
169
170
171
172
173
174
175
176
177
178
179
180
181
182
183
184
185
186
187
188
189
190
191
192
193
194
195
196
197
198
199
200
201
202
203
204
205
206
207
208
209
210
211
212
213
214
215
216
217
218
219
220
221
222
223
224
225
226
227
228
229
230
231
232
233
234
235
236
237
238
239
240
241
242
243
244
245
246
247
248
1.673122184664154 -0.4238949766478086 0
1.982199842176788 -0.4296847164517175 0
2.298007117280613 -0.4315860419069601 0
2.612675509350427 -0.4315293934417503 0
2.93112813603133 -0.4287064760911572 0
3.240125095366991 -0.4282462577046015 0
1.432669039092793 -0.431872294675389 0
3.478013587542411 -0.4318722946748854 0
1.061499963605921 -0.1071428571426094 0
1.27533484305905 -0.431872294675389 0
1.070441516973841 -0.2574505810909538 0
2.140672921245671 -0.4318694810915628 0
3.09342824327112 -0.4047713161383458 0
2.45534131331552 -0.4315578742030867 0
2.770009705385335 -0.4314781108379064 0
1.826004529177149 -0.4318722946753891 0
3.630213283595454 -0.4409555544615138 0
3.792681979612225 -0.4312904756682602 0
0.8849199064141293 0.07811419604361945 0
0.6316471717415905 0.1236961073558132 0
3.792851522366677 0.0256896394341468 0
2.913683535398286 0.6235158125744643 0
2.056229431453527 0.6019341090567637 0
1.116485036761056 -0.4426136515685899 0
1.11644960915823 0.6461397473997785 0
0.2406008283135024 0.4871967829255314 0
3.810847097304579 -0.2192619140645475 0
3.631721292157801 -0.1158798891324421 0
3.551218535650777 0.08819777614975634 0
3.4113214243372 -0.09165743748216733 0
3.332770155957653 0.1350572519877382 0
3.178887363857231 -0.0273317906292718 0
3.469236334293732 0.3645107442798408 0
3.110826813065343 0.1873965770742165 0
2.971467361128914 0.01527760658422289 0
3.035762612432731 -0.1854431843585368 0
2.86011548276618 -0.132643804945114 0
2.774379033083166 0.04037620207365608 0
2.669707041490703 -0.135897777490009 0
2.581621841966496 0.05222467485934518 0
2.464081326220897 -0.1040227950642126 0
2.385556570012707 0.07274505692089241 0
2.261836402937301 -0.1073735672395399 0
2.187639207912925 0.08916575245740541 0
2.0616315141473 -0.09809955700573117 0
1.987574202602799 0.1079184722123673 0
1.877007289039144 -0.05313389878018727 0
1.790243347320644 0.1271984068902135 0
1.681421118623157 -0.05192482204538887 0
1.59345381858757 0.1444538234307452 0
1.501161518566872 -0.01968415983107275 0
1.388703984932648 0.1210538967960362 0
1.511809860408375 0.3250662780611259 0
1.557400520511522 -0.1631188096508036 0
1.421244792850326 -0.1527230285633081 0
2.501792495895563 0.244221140623346 0
3.230613589546013 -0.2244080848357928 0
1.471109596314607 -0.2777429646681222 0
1.350638824479131 -0.2532795200358989 0
1.297255974372032 -0.1571172762899236 0
1.246070856347117 -0.2507534172336265 0
1.936370496790735 -0.2153781199206951 0
2.136478975215172 -0.237914849472227 0
1.794578958956018 -0.1907250674995415 0
1.18835204049073 -0.1620753546319372 0
1.228138972120594 -0.0661218189508687 0
1.598847537044153 -0.2816427188907155 0
2.356830440172559 -0.2586746912808892 0
2.51954882094364 -0.2639434775291636 0
3.392557224706582 -0.2730293843895816 0
0.745845422310496 0.6676247793434207 0
0.8898612662874632 0.3872256335384805 0
1.134191262716463 0.3253796890004352 0
2.658982764475368 -0.2896868290986768 0
2.367067533427922 0.7116912476049172 0
1.537836200092209 -0.3629590611160438 0
0.6397587473269306 0.4167509488603827 0
2.919537864673101 -0.2596514243086183 0
0.9883301454025388 0.2134999990962107 0
3.284736185576176 0.6299505407307636 0
2.115287959560633 0.3017203579822458 0
0.4572628528663317 0.1563480578865144 0
1.457432011763986 0.6717514749642886 0
1.217826578597626 0.148541717830563 0
2.878103563363629 0.2830429627774738 0
1.845740494508569 -0.3297817130107902 0
1.730572339895073 -0.3187404631435563 0
1.291956324531095 -0.3388183409865417 0
1.197959421342105 -0.328589223459468 0
1.155394687027731 -0.2568573661799366 0
1.114761986055563 -0.3230667657293328 0
1.386990636863489 -0.3475581555637366 0
3.672058903704792 -0.2553422003819955 0
1.195831803325589 -0.4351716837460252 0
1.349596659616499 -0.05021710283517904 0
0.7706722373692048 0.1066676504179075 0
0.857451911483074 0.1929487586263601 0
1.354001941075921 -0.4318722946753906 0
3.112468010089644 -0.2972092796381668 0
1.064512937647703 -0.03522280592774653 0
1.055132847527251 0.03739098688646785 0
0.9893966136198988 0.08342618292564877 0
1.145547313629294 0.02026982853235013 0
1.061858957412993 -0.1785714285709785 0
3.168327096610208 -0.4345188196697088 0
2.219340019263153 -0.4315413003735205 0
2.258673568271887 -0.3620476919835781 0
2.534008411332972 -0.431420598575956 0
2.376674215298066 -0.4314584524505174 0
3.320364858486999 -0.43077801186877 0
3.289171544060967 -0.3441695749574195 0
2.849307509171302 -0.4308781655588388 0
2.809323454537032 -0.3677818276921764 0
2.691342607367881 -0.4317445603665425 0
3.009551685526647 -0.4320064061184834 0
2.061816009389199 -0.4312488296298796 0
2.023669580703152 -0.3671946907748544 0
1.904671627194022 -0.431872294675389 0
1.588606296042345 -0.4316549564417631 0
1.748978606407118 -0.4289999995764678 0
3.391416873119117 -0.4452672885988365 0
3.558101777079455 -0.4290916023812855 0
3.492177204717132 -0.3459308806411539 0
3.70232479011145 -0.4294904243083153 0
3.894565943915424 -0.4370553190484011 0
3.650576017420866 0.6498903117681771 0
0.2404768678346924 0.220852507439428 0
3.743980401622009 0.3192999456500539 0
1.0650469308874 -0.3894547549210192 0
2.423401719723895 -0.3521797154926949 0
1.672564095005985 -0.2012303762460012 0
1.269651236560068 0.04084965918964672 0
1.110828785629423 -0.1450022545202765 0
1.133146668853944 -0.08254921044018138 0
2.578649904464302 -0.3573359001505961 0
2.23876517137027 -0.2659510774470512 0
2.998555272062298 -0.3387847143493265 0
2.629147850464687 0.4937553027093939 0
1.896776133162075 0.327546043230102 0
1.734404297775759 0.5384279153939107 0
3.061622596371156 0.4194817222095968 0
1.705337491450885 0.2925384934012194 0
1.506194548019178 -0.4319203657974676 0
3.255121357361874 0.3479524120888563 0
1.050050086783361 -0.3225658489195016 0
2.686175108154717 0.2099048247945256 0
1.625796911547587 -0.3637784352479774 0
2.288041830101535 0.2354504582405101 0
3.850288690287143 -0.3563955096536549 0
3.534918555548582 -0.2371454958308525 0
0.4367243942073151 0.351691359365164 0
2.790907588104357 -0.2733015943388915 0
1.088404126915512 0.1380847340452793 0
0.243640816911883 0.7574009268209744 0
3.18902226315749 -0.3555538888240058 0
1.316283866636641 0.4545049335691973 0
1.946307608275467 -0.3462106747950329 0
1.117746484271912 -0.2016490152355615 0
0.7147365405996702 0.2567614725486828 0
1.461289869182711 -0.3677780691906618 0
2.096743228581833 -0.3501832063290214 0
0.4585024422527367 0.6134441328859122 0
2.181778980657997 -0.3465846011161601 0
2.342717412149404 -0.367189318622928 0
2.502190033956066 -0.3672875131902995 0
2.654465388406916 -0.3748082532206469 0
2.729171918046148 -0.3614668625924733 0
2.883126637429903 -0.3498507003898348 0
1.154236824099713 -0.3839950709066622 0
2.326261183483978 0.4314621027028628 0
1.31376311065835 0.2749093030514715 0
1.230863491097172 -0.3845695999292696 0
1.05296010313528 -0.449278253717858 0
3.393950215438868 -0.3785079058551077 0
1.786971118738127 -0.371496138746181 0
3.620448992194336 -0.35737421296678 0
0.569887973245778 0.2585202810806271 0
3.74144174220242 -0.3415257895072588 0
0.9309028796786032 0.1456672218298439 0
2.03353356728561 -0.269163516382927 0
$EndNodes
$Elements
7 494 1 494
1 1 1 6
1 1 7 
2 7 8 
3 8 9 
4 9 10 
5 10 11 
6 11 2 
1 2 1 7
7 2 12 
8 12 13 
9 13 14 
10 14 15 
11 15 16 
12 16 17 
13 17 3 
1 3 1 38
14 3 18 
15 18 19 
16 19 20 
17 20 21 
18 21 22 
19 22 23 
20 23 24 
21 24 25 
22 25 26 
23 26 27 
24 27 28 
25 28 29 
26 29 30 
27 30 31 
28 31 32 
29 32 33 
30 33 34 
31 34 35 
32 35 36 
33 36 37 
34 37 38 
35 38 39 
36 39 40 
37 40 41 
38 41 42 
39 42 43 
40 43 44 
41 44 45 
42 45 46 
43 46 47 
44 47 48 
45 48 49 
46 49 50 
47 50 51 
48 51 52 
49 52 53 
50 53 54 
51 54 4 
1 4 1 5
52 4 55 
53 55 56 
54 56 57 
55 57 58 
56 58 5 
1 5 1 9
57 5 59 
58 59 60 
59 60 61 
60 61 62 
61 62 63 
62 63 64 
63 64 65 
64 65 66 
65 66 6 
1 6 1 3
66 6 67 
67 67 68 
68 68 1 
2 1 2 426
69 139 140 93 
70 125 138 98 
71 78 166 156 
72 173 223 81 
73 125 179 138 
74 191 242 76 
75 61 206 90 
76 137 142 107 
77 69 188 155 
78 143 206 61 
79 79 159 158 
80 89 96 95 
81 171 221 169 
82 120 200 163 
83 120 163 119 
84 117 199 132 
85 119 122 117 
86 89 95 56 
87 156 166 160 
88 84 186 154 
89 117 132 115 
90 151 208 63 
91 100 125 98 
92 206 238 124 
93 79 213 159 
94 140 141 93 
95 155 215 69 
96 140 147 141 
97 131 204 111 
98 65 139 93 
99 119 123 122 
100 109 137 107 
101 104 125 100 
102 113 131 111 
103 138 218 98 
104 63 208 91 
105 123 126 122 
106 179 242 138 
107 142 220 107 
108 103 104 100 
109 115 130 113 
110 111 136 109 
111 115 132 130 
112 96 161 95 
113 136 137 109 
114 130 248 113 
115 136 198 137 
116 5 194 58 
117 113 248 131 
118 95 217 55 
119 133 202 201 
120 65 93 64 
121 183 205 73 
122 90 206 153 
123 56 95 55 
124 135 215 155 
125 133 158 129 
126 138 242 191 
127 103 105 104 
128 104 167 125 
129 55 217 193 
130 123 127 126 
131 126 144 135 
132 206 214 153 
133 137 203 142 
134 128 129 127 
135 153 209 90 
136 132 154 130 
137 7 195 1 
138 105 146 104 
139 192 244 85 
140 57 89 56 
141 127 160 126 
142 126 135 122 
143 155 199 135 
144 59 194 5 
145 91 143 62 
146 81 223 167 
147 66 230 139 
148 128 133 129 
149 205 236 73 
150 98 218 96 
151 124 238 216 
152 165 247 147 
153 118 119 117 
154 107 220 105 
155 134 202 133 
156 167 205 81 
157 154 243 84 
158 63 91 62 
159 61 90 60 
160 152 200 120 
161 140 165 147 
162 93 151 64 
163 133 226 158 
164 160 166 75 
165 139 145 140 
166 101 194 148 
167 81 205 183 
168 2 170 11 
169 66 139 65 
170 122 199 117 
171 141 221 152 
172 92 237 197 
173 186 225 154 
174 197 237 159 
175 90 148 60 
176 158 159 157 
177 175 232 136 
178 91 238 143 
179 151 224 121 
180 148 212 101 
181 192 246 244 
182 123 128 127 
183 58 196 57 
184 198 233 137 
185 147 221 141 
186 68 94 67 
187 129 157 156 
188 129 156 127 
189 132 155 154 
190 111 204 136 
191 116 117 115 
192 62 143 61 
193 11 170 87 
194 140 227 165 
195 91 207 149 
196 1 195 68 
197 97 98 96 
198 143 238 206 
199 121 208 151 
200 114 115 113 
201 165 227 164 
202 125 223 179 
203 106 107 105 
204 68 195 94 
205 134 200 171 
206 129 158 157 
207 99 100 98 
208 60 148 59 
209 64 151 63 
210 112 113 111 
211 108 109 107 
212 160 228 126 
213 152 221 171 
214 110 111 109 
215 102 103 100 
216 118 120 119 
217 191 218 138 
218 145 227 140 
219 164 227 88 
220 101 196 194 
221 229 231 131 
222 89 196 97 
223 78 162 20 
224 8 150 7 
225 194 196 58 
226 19 92 18 
227 19 162 92 
228 188 243 155 
229 156 240 78 
230 148 194 59 
231 9 88 8 
232 9 164 88 
233 21 166 78 
234 21 78 20 
235 20 162 19 
236 6 222 66 
237 155 243 154 
238 22 166 21 
239 75 166 22 
240 171 200 152 
241 23 75 22 
242 203 234 142 
243 13 77 12 
244 14 172 13 
245 32 80 31 
246 36 82 35 
247 40 83 39 
248 42 73 41 
249 44 81 43 
250 46 74 45 
251 38 72 37 
252 34 71 33 
253 52 192 51 
254 48 189 47 
255 54 193 53 
256 50 190 49 
257 30 70 29 
258 26 69 25 
259 28 84 27 
260 25 187 24 
261 27 188 26 
262 15 79 14 
263 144 215 135 
264 158 226 79 
265 171 202 134 
266 29 186 28 
267 31 184 30 
268 187 215 144 
269 131 231 204 
270 91 208 207 
271 132 199 155 
272 136 204 175 
273 13 172 77 
274 161 246 95 
275 33 174 32 
276 69 187 25 
277 84 188 27 
278 26 188 69 
279 79 172 14 
280 146 205 104 
281 90 209 148 
282 35 177 34 
283 70 186 29 
284 28 186 84 
285 119 163 123 
286 156 160 127 
287 37 176 36 
288 80 184 31 
289 30 184 70 
290 39 182 38 
291 181 236 220 
292 32 174 80 
293 71 174 33 
294 126 228 144 
295 41 180 40 
296 34 177 71 
297 82 177 35 
298 43 183 42 
299 72 176 37 
300 36 176 82 
301 45 173 44 
302 38 182 72 
303 83 182 39 
304 220 235 181 
305 142 235 220 
306 47 178 46 
307 40 180 83 
308 73 180 41 
309 89 97 96 
310 116 118 117 
311 49 76 48 
312 42 183 73 
313 81 183 43 
314 51 85 50 
315 128 134 133 
316 114 116 115 
317 74 173 45 
318 44 173 81 
319 17 197 16 
320 53 86 52 
321 97 196 101 
322 46 178 74 
323 47 189 178 
324 222 230 66 
325 95 246 217 
326 103 153 106 
327 211 228 75 
328 49 190 76 
329 76 189 48 
330 103 106 105 
331 51 192 85 
332 85 190 50 
333 93 224 151 
334 154 225 130 
335 86 192 52 
336 53 193 86 
337 112 114 113 
338 10 164 9 
339 23 211 75 
340 187 211 24 
341 123 163 128 
342 149 238 91 
343 12 168 2 
344 97 99 98 
345 141 224 93 
346 106 108 107 
347 99 102 100 
348 108 110 109 
349 110 112 111 
350 185 248 225 
351 120 239 152 
352 128 163 134 
353 102 153 103 
354 77 168 12 
355 135 199 122 
356 104 205 167 
357 225 248 130 
358 15 213 79 
359 18 241 3 
360 75 228 160 
361 11 87 10 
362 57 196 89 
363 204 231 175 
364 157 240 156 
365 159 213 197 
366 195 219 94 
367 124 214 206 
368 3 241 17 
369 24 211 23 
370 197 213 16 
371 220 236 146 
372 172 201 77 
373 67 222 6 
374 79 226 172 
375 244 246 161 
376 94 222 67 
377 167 223 125 
378 163 200 134 
379 159 237 157 
380 121 210 208 
381 121 239 120 
382 146 236 205 
383 16 213 15 
384 150 195 7 
385 92 241 18 
386 144 211 187 
387 131 248 229 
388 136 232 198 
389 144 228 211 
390 168 169 2 
391 208 210 207 
392 209 212 148 
393 224 239 121 
394 97 101 99 
395 162 240 237 
396 162 237 92 
397 112 149 114 
398 108 124 110 
399 105 220 146 
400 118 121 120 
401 74 223 173 
402 102 209 153 
403 78 240 162 
404 150 219 195 
405 153 214 106 
406 201 226 133 
407 94 230 222 
408 69 215 187 
409 88 150 8 
410 77 202 168 
411 197 241 92 
412 70 225 186 
413 114 207 116 
414 152 239 141 
415 201 202 77 
416 147 247 170 
417 116 210 118 
418 106 214 108 
419 237 240 157 
420 170 221 147 
421 141 239 224 
422 96 218 161 
423 191 244 218 
424 169 170 2 
425 17 241 197 
426 85 244 190 
427 99 212 102 
428 110 216 112 
429 229 248 185 
430 172 226 201 
431 179 223 74 
432 168 171 169 
433 87 164 10 
434 170 247 87 
435 145 230 219 
436 137 233 203 
437 149 207 114 
438 101 212 99 
439 108 214 124 
440 87 165 164 
441 102 212 209 
442 139 230 145 
443 185 225 70 
444 124 216 110 
445 112 216 149 
446 118 210 121 
447 168 202 171 
448 207 210 116 
449 190 244 191 
450 169 221 170 
451 219 230 94 
452 84 243 188 
453 184 185 70 
454 180 181 83 
455 72 203 176 
456 218 244 161 
457 71 175 174 
458 82 198 177 
459 80 229 184 
460 174 231 80 
461 178 179 74 
462 216 238 149 
463 177 232 71 
464 176 233 82 
465 182 234 72 
466 83 235 182 
467 73 236 180 
468 150 245 219 
469 190 191 76 
470 193 217 86 
471 189 242 178 
472 184 229 185 
473 88 245 150 
474 87 247 165 
475 175 231 174 
476 71 232 175 
477 198 232 177 
478 203 233 176 
479 80 231 229 
480 82 233 198 
481 72 234 203 
482 181 235 83 
483 180 236 181 
484 227 245 88 
485 182 235 234 
486 219 245 145 
487 234 235 142 
488 178 242 179 
489 86 246 192 
490 145 245 227 
491 217 246 86 
492 4 193 54 
493 55 193 4 
494 76 242 189 
$EndElements
